<?xml version="1.0" encoding="UTF-8"?>
<svg version="1.1" xmlns="http://www.w3.org/2000/svg" width="64" height="64">
<path d="M0 0 C1.40737679 -0.02893593 1.40737679 -0.02893593 2.84318542 -0.05845642 C7.14606924 -0.11621825 11.44878477 -0.1654966 15.75195312 -0.19628906 C18.01870982 -0.21785252 20.28538362 -0.25193537 22.55175781 -0.29882812 C25.82305017 -0.36590096 29.09261848 -0.39330313 32.36450195 -0.41235352 C33.37204025 -0.44018417 34.37957855 -0.46801483 35.41764832 -0.49668884 C41.5209987 -0.47893877 44.8370427 0.3999476 49.23957825 4.72276306 C51.48023729 7.41179138 51.62088945 9.31147433 51.68652344 12.73095703 C51.70581406 13.66920822 51.72510468 14.60745941 51.74497986 15.57414246 C51.80274169 19.87702627 51.85202004 24.1797418 51.8828125 28.48291016 C51.90437595 30.74966685 51.93845881 33.01634065 51.98535156 35.28271484 C52.05242439 38.55400721 52.07982657 41.82357551 52.09887695 45.09545898 C52.12670761 46.10299728 52.15453827 47.11053558 52.18321228 48.14860535 C52.16546221 54.25195573 51.28657583 57.56799973 46.96376038 61.97053528 C44.27473206 64.21119432 42.3750491 64.35184648 38.95556641 64.41748047 C38.01731522 64.43677109 37.07906403 64.45606171 36.11238098 64.47593689 C31.80949716 64.53369872 27.50678164 64.58297707 23.20361328 64.61376953 C20.93685659 64.63533298 18.67018278 64.66941584 16.40380859 64.71630859 C13.13251623 64.78338143 9.86294793 64.8107836 6.59106445 64.82983398 C5.58352615 64.85766464 4.57598785 64.8854953 3.53791809 64.91416931 C-2.56543229 64.89641924 -5.8814763 64.01753287 -10.28401184 59.69471741 C-12.52467088 57.00568909 -12.66532305 55.10600613 -12.73095703 51.68652344 C-12.75024765 50.74827225 -12.76953827 49.81002106 -12.78941345 48.84333801 C-12.84717528 44.5404542 -12.89645363 40.23773867 -12.92724609 35.93457031 C-12.94880955 33.66781362 -12.9828924 31.40113981 -13.02978516 29.13476562 C-13.09685799 25.86347326 -13.12426017 22.59390496 -13.14331055 19.32202148 C-13.1711412 18.31448318 -13.19897186 17.30694489 -13.22764587 16.26887512 C-13.2098958 10.16552474 -12.33100943 6.84948073 -8.00819397 2.44694519 C-5.31916566 0.20628615 -3.4194827 0.06563398 0 0 Z " fill="#EDF7FB" transform="translate(12.522216796875,-0.208740234375)"/>
<path d="M0 0 C0.70744354 0.00141495 1.41488708 0.0028299 2.14376831 0.00428772 C4.40578419 0.00989025 6.66770148 0.02244307 8.9296875 0.03515625 C10.46223815 0.04017093 11.99479036 0.04473389 13.52734375 0.04882812 C17.28652697 0.05901009 21.04549674 0.07858482 24.8046875 0.09765625 C24.8046875 8.01765625 24.8046875 15.93765625 24.8046875 24.09765625 C22.8246875 24.09765625 20.8446875 24.09765625 18.8046875 24.09765625 C18.8046875 17.82765625 18.8046875 11.55765625 18.8046875 5.09765625 C14.88637134 5.15756934 10.97190223 5.24457165 7.0546875 5.34765625 C5.94351562 5.36183594 4.83234375 5.37601562 3.6875 5.390625 C2.61757813 5.42285156 1.54765625 5.45507812 0.4453125 5.48828125 C-1.03146973 5.51970215 -1.03146973 5.51970215 -2.53808594 5.55175781 C-6.08966461 6.28139121 -7.18393265 7.06276339 -9.1953125 10.09765625 C-9.77684105 13.16151084 -9.75583751 16.17007027 -9.7265625 19.28125 C-9.7303894 20.17376968 -9.73421631 21.06628937 -9.73815918 21.9858551 C-9.74087796 23.87119679 -9.73351909 25.75657622 -9.71679688 27.6418457 C-9.69541126 30.52185603 -9.71658591 33.3993647 -9.7421875 36.27929688 C-9.73954372 38.11328674 -9.73441771 39.94727505 -9.7265625 41.78125 C-9.73870789 43.06895546 -9.73870789 43.06895546 -9.75109863 44.38267517 C-9.68797675 48.42552612 -9.49670922 50.59839756 -7.36523438 54.12915039 C-4.68159205 56.56369226 -2.76038446 56.85458316 0.8046875 57.09765625 C0.8046875 59.07765625 0.8046875 61.05765625 0.8046875 63.09765625 C-5.6980617 62.76130715 -8.62094677 61.78093545 -13.1953125 57.09765625 C-14.95498637 54.19283766 -15.45762468 52.00175346 -15.51757812 48.6237793 C-15.53679321 47.74574142 -15.5560083 46.86770355 -15.57580566 45.96305847 C-15.58430542 45.02134293 -15.59280518 44.07962738 -15.6015625 43.109375 C-15.61296265 42.13281448 -15.62436279 41.15625397 -15.6361084 40.15010071 C-15.65498521 38.08489297 -15.66806719 36.0196253 -15.67578125 33.9543457 C-15.69518172 30.80637656 -15.75723233 27.66102747 -15.8203125 24.51367188 C-15.83337512 22.50392171 -15.84387507 20.49415292 -15.8515625 18.484375 C-15.8762561 17.54873215 -15.90094971 16.61308929 -15.9263916 15.64909363 C-15.88644316 9.74225471 -14.81892381 6.6305521 -10.68005371 2.36140442 C-7.37668034 -0.4502856 -4.1213802 -0.0308446 0 0 Z " fill="#0FA8E8" transform="translate(16.1953125,0.90234375)"/>
<path d="M0 0 C5.7200759 -0.45760607 8.55296727 0.36151868 13 4 C15.5536868 6.88135846 16.37635633 8.6629787 16.38818359 12.50561523 C16.39764008 13.39010849 16.40709656 14.27460175 16.4168396 15.18589783 C16.41076691 16.13388748 16.40469421 17.08187714 16.3984375 18.05859375 C16.40130768 19.03989761 16.40417786 20.02120148 16.40713501 21.03224182 C16.40917488 23.1058917 16.40365043 25.17956085 16.39111328 27.25317383 C16.37507602 30.42247728 16.39095605 33.59050213 16.41015625 36.75976562 C16.40817347 38.77604448 16.40432907 40.79232253 16.3984375 42.80859375 C16.40754654 44.22754189 16.40754654 44.22754189 16.4168396 45.67515564 C16.35268292 51.69730918 15.48895061 55.09622429 11.5 59.75 C8.05093036 62.6242247 4.18912722 62.11505766 -0.07421875 62.09765625 C-1.09996758 62.09553383 -1.09996758 62.09553383 -2.1464386 62.09336853 C-4.32683722 62.08777876 -6.50713251 62.07522822 -8.6875 62.0625 C-10.16731622 62.05748367 -11.64713406 62.052921 -13.12695312 62.04882812 C-16.75137376 62.0386643 -20.37557144 62.0190871 -24 62 C-24 54.41 -24 46.82 -24 39 C-22.35 39 -20.7 39 -19 39 C-19 44.94 -19 50.88 -19 57 C-15.10187297 56.96699046 -11.20946966 56.8997957 -7.3125 56.8125 C-5.65831055 56.80379883 -5.65831055 56.80379883 -3.97070312 56.79492188 C-2.3706543 56.75141602 -2.3706543 56.75141602 -0.73828125 56.70703125 C0.24100342 56.6913208 1.22028809 56.67561035 2.22924805 56.65942383 C6.20934174 55.71218327 7.61765077 54.31573134 10 51 C10.71133831 47.88665597 10.70159368 44.86696611 10.6640625 41.68359375 C10.66884613 40.79011734 10.67362976 39.89664093 10.67855835 38.97608948 C10.68195241 37.0925215 10.67278453 35.20889421 10.65185547 33.32543945 C10.62504965 30.4428392 10.65163448 27.56412121 10.68359375 24.68164062 C10.68029018 22.84894975 10.67388503 21.01626128 10.6640625 19.18359375 C10.67418365 18.32309921 10.68430481 17.46260468 10.69473267 16.57603455 C10.60873243 11.50340894 10.60873243 11.50340894 7.63427734 7.47290039 C5.01322122 6.00739236 2.97025574 5.3394578 0 5 C0 3.35 0 1.7 0 0 Z " fill="#0BA7E7" transform="translate(47,1)"/>
<path d="M0 0 C2.97 0 5.94 0 9 0 C8.67 5.94 8.34 11.88 8 18 C9.77375 17.95875 11.5475 17.9175 13.375 17.875 C16.3984375 17.8046875 16.3984375 17.8046875 19 18 C21.52128356 20.52128356 21.29353069 21.51239013 21.4140625 25.0078125 C21.45273437 25.99394531 21.49140625 26.98007812 21.53125 27.99609375 C21.5621875 29.02863281 21.593125 30.06117187 21.625 31.125 C21.66367187 32.16527344 21.70234375 33.20554688 21.7421875 34.27734375 C21.83664766 36.85138311 21.92221214 39.42541155 22 42 C19.03 42 16.06 42 13 42 C13.495 33.09 13.495 33.09 14 24 C12.22625 24.04125 10.4525 24.0825 8.625 24.125 C5.6015625 24.1953125 5.6015625 24.1953125 3 24 C0.47871644 21.47871644 0.70646931 20.48760987 0.5859375 16.9921875 C0.54726563 16.00605469 0.50859375 15.01992188 0.46875 14.00390625 C0.4378125 12.97136719 0.406875 11.93882813 0.375 10.875 C0.33632813 9.83472656 0.29765625 8.79445313 0.2578125 7.72265625 C0.16335234 5.14861689 0.07778786 2.57458845 0 0 Z " fill="#292929" transform="translate(21,11)"/>
</svg>
