<svg width="40" height="33" viewBox="0 0 40 33" fill="none" xmlns="http://www.w3.org/2000/svg">
<path d="M39.0217 23.4891L32.5814 18.73C33.7383 16.8106 34.3465 14.6239 34.3465 12.3612C34.3465 6.80801 30.6104 1.90543 25.261 0.438588C24.852 0.326954 24.4292 0.567326 24.3169 0.97635C24.2047 1.38567 24.4457 1.8082 24.8547 1.92043C29.5388 3.20482 32.8101 7.49821 32.8101 12.3612C32.8101 14.2938 32.3035 16.1624 31.3393 17.812L23.1268 11.7433C22.8936 11.571 22.5833 11.5446 22.3243 11.6752C22.0653 11.8057 21.9021 12.071 21.9021 12.3612V23.1851C18.771 23.1617 15.8667 21.8209 13.8255 19.4751C16.0425 17.8873 17.4902 15.2901 17.4902 12.3612C17.4902 9.4332 16.0434 6.83681 13.8276 5.24904C15.2218 3.65406 17.0742 2.4816 19.108 1.92253C19.517 1.81 19.7574 1.38717 19.6451 0.97815C19.5326 0.568827 19.1092 0.328754 18.7004 0.440988C16.2853 1.10509 14.0931 2.52392 12.482 4.4562C11.3482 3.91784 10.0812 3.61624 8.74493 3.61624C3.92308 3.61624 0 7.53933 0 12.3612C0 17.1833 3.92308 21.1064 8.74493 21.1064C10.0812 21.1064 11.3485 20.8045 12.4823 20.2662C14.823 23.0828 18.2257 24.6976 21.9021 24.7216V32.2317C21.9021 32.5648 22.1167 32.8601 22.4339 32.9627C22.5119 32.9879 22.5914 32.9999 22.6703 32.9999C22.9122 32.9999 23.1457 32.8853 23.293 32.6818L28.9353 24.8752H38.5652C38.8968 24.8752 39.1909 24.6625 39.2947 24.3474C39.3986 24.0326 39.2884 23.6863 39.0217 23.4891ZM1.53646 12.3612C1.53646 8.38648 4.77024 5.15271 8.74493 5.15271C12.7199 5.15271 15.9537 8.38648 15.9537 12.3612C15.9537 16.3359 12.7199 19.5699 8.74493 19.5699C4.77024 19.5699 1.53646 16.3359 1.53646 12.3612ZM28.5428 23.3388C28.2961 23.3388 28.0645 23.4573 27.9201 23.6569L23.4386 29.8573V13.8841L36.2329 23.3388H28.5428Z" fill="black"/>
</svg>
