<svg version="1.1" id="Layer_1" xmlns="http://www.w3.org/2000/svg" xmlns:xlink="http://www.w3.org/1999/xlink" x="0px" y="0px"
	 width="100%" viewBox="0 0 310 310" enable-background="new 0 0 310 310" xml:space="preserve">
<path fill="#FDFEFE" opacity="1.000000" stroke="none" 
	d="
M0.999995,264.000000 
	C1.000000,192.645767 1.000000,121.291542 1.325502,49.763626 
	C2.103722,48.789639 2.697677,48.037197 2.987530,47.181717 
	C6.247766,37.559353 11.604737,29.228298 18.586847,21.924444 
	C27.111721,13.006734 37.289379,6.719105 49.052036,2.959149 
	C49.830563,2.710292 50.356552,1.671415 51.000000,1.000000 
	C120.687561,1.000000 190.375122,1.000000 260.234314,1.336266 
	C260.741821,2.037347 261.017395,2.626003 261.422119,2.734967 
	C284.734711,9.011142 300.437286,23.623180 309.094574,46.041538 
	C309.284363,46.533009 310.345398,46.688026 311.000000,47.000000 
	C311.000000,119.687561 311.000000,192.375122 310.680847,265.237549 
	C310.098022,265.611816 309.698975,265.755157 309.589813,266.018616 
	C300.739838,287.375610 286.118256,302.549408 263.496582,309.232788 
	C263.184296,309.325073 263.159180,310.389374 263.000000,311.000000 
	C191.979111,311.000000 120.958214,311.000000 49.763641,310.674500 
	C48.954338,309.903198 48.379692,309.280304 47.674202,309.037415 
	C27.364582,302.044708 12.833440,288.861755 4.428404,268.990723 
	C3.658100,267.169586 2.160085,265.656281 0.999995,264.000000 
M282.157349,229.498322 
	C282.156708,232.330795 282.162933,235.163300 282.154297,237.995758 
	C282.075439,263.851410 263.930328,282.085663 238.140869,282.121277 
	C206.649277,282.164764 175.157578,282.136505 143.665924,282.122375 
	C142.067886,282.121643 140.469910,281.960999 138.296249,281.843750 
	C138.296249,252.533234 138.296249,223.637909 138.296249,194.682831 
	C128.977707,194.682831 120.271111,194.682831 111.643204,194.682831 
	C111.643204,232.988007 111.643204,270.861938 111.643204,308.993530 
	C113.727837,308.993530 115.384491,308.993561 117.041145,308.993561 
	C159.030014,308.993469 201.018890,309.008392 243.007767,308.988586 
	C277.465729,308.972321 308.983124,277.371094 308.990234,242.841415 
	C309.001892,186.189758 308.887939,129.537811 309.044800,72.886589 
	C309.108551,49.857883 299.672546,31.645838 281.921814,17.609640 
	C265.585693,4.692013 246.614960,1.631619 226.412506,3.655768 
	C226.412506,12.613947 226.412506,21.209345 226.412506,30.309048 
	C230.176086,30.309048 233.637375,30.300787 237.098618,30.310356 
	C264.173309,30.385212 282.141083,48.397358 282.151306,75.539566 
	C282.170471,126.526047 282.157227,177.512543 282.157349,229.498322 
M30.914433,17.394194 
	C12.597239,31.852043 3.264942,50.746815 3.239157,74.083664 
	C3.178402,129.070190 3.168799,184.056961 3.299573,239.043259 
	C3.312537,244.494034 3.909346,250.062912 5.128311,255.371902 
	C12.930657,289.353760 45.628426,314.268188 84.083855,308.291595 
	C84.083855,300.740143 84.094727,293.111328 84.070084,285.482574 
	C84.067009,284.530304 83.876007,283.578613 83.718117,282.132355 
	C80.535233,282.132355 77.575287,282.140381 74.615387,282.131134 
	C48.844086,282.050781 30.413654,263.859680 30.369726,238.108078 
	C30.276781,183.621506 30.271004,129.134537 30.372236,74.648010 
	C30.420589,48.624138 48.886841,30.364019 74.933434,30.320370 
	C105.425911,30.269270 135.918549,30.302382 166.411102,30.320400 
	C168.149277,30.321428 169.887360,30.516060 171.855682,30.634430 
	C171.855682,46.101070 171.855682,60.920650 171.855682,75.740234 
	C171.855682,90.522675 171.855682,105.305115 171.855682,120.261505 
	C181.140320,120.261505 189.872131,120.261505 198.659683,120.261505 
	C198.659683,81.160316 198.659683,42.427166 198.659683,3.219451 
	C196.538605,3.219451 194.742737,3.219450 192.946884,3.219451 
	C153.289886,3.219494 113.632820,3.256291 73.975891,3.201345 
	C58.288250,3.179609 44.134098,7.693527 30.914433,17.394194 
M203.049042,190.500000 
	C203.048508,179.667587 203.079086,168.835052 203.038589,158.002792 
	C202.998825,147.363602 196.898758,141.176758 186.356308,141.108902 
	C177.190750,141.049896 168.024521,141.095215 158.858597,141.094757 
	C152.750412,141.094452 146.642242,141.094696 140.359558,141.094696 
	C140.359558,117.256599 140.359558,94.005280 140.359558,70.552872 
	C141.683105,70.382874 142.825714,70.329956 143.922852,70.078644 
	C148.230194,69.091957 149.613190,66.042107 149.018250,59.151649 
	C148.677902,55.209896 146.609634,52.950626 142.635040,52.924202 
	C130.803223,52.845531 118.970253,52.845375 107.138390,52.919308 
	C103.169655,52.944107 101.096115,55.159554 100.760139,59.129288 
	C100.066994,67.319244 101.272308,69.045883 109.607338,70.922035 
	C109.607338,72.602325 109.607323,74.397682 109.607346,76.193039 
	C109.607635,102.190941 109.585556,128.188873 109.618408,154.186737 
	C109.633118,165.825867 115.536125,171.714691 127.165619,171.741745 
	C142.098572,171.776505 157.031677,171.750214 172.219589,171.750214 
	C172.219589,195.244858 172.219589,218.659714 172.219589,242.019226 
	C164.223129,243.703537 162.851578,245.655594 163.695572,253.832733 
	C164.196884,258.689941 166.289276,259.981873 173.686081,259.984558 
	C183.185318,259.988007 192.684540,259.990234 202.183777,259.983917 
	C210.479797,259.978363 212.018448,258.210052 212.022278,250.041061 
	C212.025116,243.969681 208.184128,242.576813 203.049042,242.161774 
	C203.049042,225.116043 203.049042,208.308029 203.049042,190.500000 
z"/>
<path fill="#000000" opacity="1.000000" stroke="none" 
	d="
M50.531342,1.000000 
	C50.356552,1.671415 49.830563,2.710292 49.052036,2.959149 
	C37.289379,6.719105 27.111721,13.006734 18.586847,21.924444 
	C11.604737,29.228298 6.247766,37.559353 2.987530,47.181717 
	C2.697677,48.037197 2.103722,48.789639 1.325502,49.294968 
	C1.000000,33.071766 1.000000,17.143530 1.000000,1.000000 
	C17.353598,1.000000 33.708141,1.000000 50.531342,1.000000 
z"/>
<path fill="#000000" opacity="1.000000" stroke="none" 
	d="
M311.000000,46.531342 
	C310.345398,46.688026 309.284363,46.533009 309.094574,46.041538 
	C300.437286,23.623180 284.734711,9.011142 261.422119,2.734967 
	C261.017395,2.626003 260.741821,2.037347 260.703003,1.336266 
	C277.590332,1.000000 294.180695,1.000000 311.000000,1.000000 
	C311.000000,16.020119 311.000000,31.041401 311.000000,46.531342 
z"/>
<path fill="#000000" opacity="1.000000" stroke="none" 
	d="
M0.999995,264.468658 
	C2.160085,265.656281 3.658100,267.169586 4.428404,268.990723 
	C12.833440,288.861755 27.364582,302.044708 47.674202,309.037415 
	C48.379692,309.280304 48.954338,309.903198 49.294983,310.674500 
	C33.074043,311.000000 17.148087,311.000000 1.000000,311.000000 
	C1.000000,295.646484 1.000000,280.291901 0.999995,264.468658 
z"/>
<path fill="#000000" opacity="1.000000" stroke="none" 
	d="
M263.468658,311.000000 
	C263.159180,310.389374 263.184296,309.325073 263.496582,309.232788 
	C286.118256,302.549408 300.739838,287.375610 309.589813,266.018616 
	C309.698975,265.755157 310.098022,265.611816 310.680847,265.706177 
	C311.000000,280.929077 311.000000,295.858185 311.000000,311.000000 
	C295.313080,311.000000 279.625183,311.000000 263.468658,311.000000 
z"/>
<path fill="#09A6E7" opacity="1.000000" stroke="none" 
	d="
M282.157410,228.998688 
	C282.157227,177.512543 282.170471,126.526047 282.151306,75.539566 
	C282.141083,48.397358 264.173309,30.385212 237.098618,30.310356 
	C233.637375,30.300787 230.176086,30.309048 226.412506,30.309048 
	C226.412506,21.209345 226.412506,12.613947 226.412506,3.655768 
	C246.614960,1.631619 265.585693,4.692013 281.921814,17.609640 
	C299.672546,31.645838 309.108551,49.857883 309.044800,72.886589 
	C308.887939,129.537811 309.001892,186.189758 308.990234,242.841415 
	C308.983124,277.371094 277.465729,308.972321 243.007767,308.988586 
	C201.018890,309.008392 159.030014,308.993469 117.041145,308.993561 
	C115.384491,308.993561 113.727837,308.993530 111.643204,308.993530 
	C111.643204,270.861938 111.643204,232.988007 111.643204,194.682831 
	C120.271111,194.682831 128.977707,194.682831 138.296249,194.682831 
	C138.296249,223.637909 138.296249,252.533234 138.296249,281.843750 
	C140.469910,281.960999 142.067886,282.121643 143.665924,282.122375 
	C175.157578,282.136505 206.649277,282.164764 238.140869,282.121277 
	C263.930328,282.085663 282.075439,263.851410 282.154297,237.995758 
	C282.162933,235.163300 282.156708,232.330795 282.157410,228.998688 
z"/>
<path fill="#08A6E7" opacity="1.000000" stroke="none" 
	d="
M31.201340,17.178843 
	C44.134098,7.693527 58.288250,3.179609 73.975891,3.201345 
	C113.632820,3.256291 153.289886,3.219494 192.946884,3.219451 
	C194.742737,3.219450 196.538605,3.219451 198.659683,3.219451 
	C198.659683,42.427166 198.659683,81.160316 198.659683,120.261505 
	C189.872131,120.261505 181.140320,120.261505 171.855682,120.261505 
	C171.855682,105.305115 171.855682,90.522675 171.855682,75.740234 
	C171.855682,60.920650 171.855682,46.101070 171.855682,30.634430 
	C169.887360,30.516060 168.149277,30.321428 166.411102,30.320400 
	C135.918549,30.302382 105.425911,30.269270 74.933434,30.320370 
	C48.886841,30.364019 30.420589,48.624138 30.372236,74.648010 
	C30.271004,129.134537 30.276781,183.621506 30.369726,238.108078 
	C30.413654,263.859680 48.844086,282.050781 74.615387,282.131134 
	C77.575287,282.140381 80.535233,282.132355 83.718117,282.132355 
	C83.876007,283.578613 84.067009,284.530304 84.070084,285.482574 
	C84.094727,293.111328 84.083855,300.740143 84.083855,308.291595 
	C45.628426,314.268188 12.930657,289.353760 5.128311,255.371902 
	C3.909346,250.062912 3.312537,244.494034 3.299573,239.043259 
	C3.168799,184.056961 3.178402,129.070190 3.239157,74.083664 
	C3.264942,50.746815 12.597239,31.852043 31.201340,17.178843 
z"/>
<path fill="#1D1D1D" opacity="1.000000" stroke="none" 
	d="
M203.049042,191.000000 
	C203.049042,208.308029 203.049042,225.116043 203.049042,242.161774 
	C208.184128,242.576813 212.025116,243.969681 212.022278,250.041061 
	C212.018448,258.210052 210.479797,259.978363 202.183777,259.983917 
	C192.684540,259.990234 183.185318,259.988007 173.686081,259.984558 
	C166.289276,259.981873 164.196884,258.689941 163.695572,253.832733 
	C162.851578,245.655594 164.223129,243.703537 172.219589,242.019226 
	C172.219589,218.659714 172.219589,195.244858 172.219589,171.750214 
	C157.031677,171.750214 142.098572,171.776505 127.165619,171.741745 
	C115.536125,171.714691 109.633118,165.825867 109.618408,154.186737 
	C109.585556,128.188873 109.607635,102.190941 109.607346,76.193039 
	C109.607323,74.397682 109.607338,72.602325 109.607338,70.922035 
	C101.272308,69.045883 100.066994,67.319244 100.760139,59.129288 
	C101.096115,55.159554 103.169655,52.944107 107.138390,52.919308 
	C118.970253,52.845375 130.803223,52.845531 142.635040,52.924202 
	C146.609634,52.950626 148.677902,55.209896 149.018250,59.151649 
	C149.613190,66.042107 148.230194,69.091957 143.922852,70.078644 
	C142.825714,70.329956 141.683105,70.382874 140.359558,70.552872 
	C140.359558,94.005280 140.359558,117.256599 140.359558,141.094696 
	C146.642242,141.094696 152.750412,141.094452 158.858597,141.094757 
	C168.024521,141.095215 177.190750,141.049896 186.356308,141.108902 
	C196.898758,141.176758 202.998825,147.363602 203.038589,158.002792 
	C203.079086,168.835052 203.048508,179.667587 203.049042,191.000000 
z"/>
</svg>