<svg width="33" height="33" viewBox="0 0 33 33" fill="none" xmlns="http://www.w3.org/2000/svg">
<path d="M4.76953 5.41406C5.12553 5.41406 5.41406 5.12553 5.41406 4.76953V3.42332H13.793V4.76953C13.793 5.12553 14.0815 5.41406 14.4375 5.41406H18.5625C18.9185 5.41406 19.207 5.12553 19.207 4.76953V3.42332H23.0742C23.4302 3.42332 23.7188 3.13479 23.7188 2.77879C23.7188 2.42278 23.4302 2.13425 23.0742 2.13425H19.207V0.644531C19.207 0.288528 18.9185 0 18.5625 0H14.4375C14.0815 0 13.793 0.288528 13.793 0.644531V2.13425H5.41406V0.644531C5.41406 0.288528 5.12553 0 4.76953 0H0.644531C0.288528 0 0 0.288528 0 0.644531V4.76953C0 5.12553 0.288528 5.41406 0.644531 5.41406H2.18713V13.793H0.644531C0.288528 13.793 0 14.0815 0 14.4375V18.5625C0 18.9185 0.288528 19.207 0.644531 19.207H2.18713V27.5859H0.644531C0.288528 27.5859 0 27.8745 0 28.2305V32.3555C0 32.7115 0.288528 33 0.644531 33H4.76953C5.12553 33 5.41406 32.7115 5.41406 32.3555V28.2305C5.41406 27.8745 5.12553 27.5859 4.76953 27.5859H3.47619V19.207H4.76953C5.12553 19.207 5.41406 18.9185 5.41406 18.5625V14.4375C5.41406 14.0815 5.12553 13.793 4.76953 13.793H3.47619V5.41406H4.76953ZM15.082 1.28906H17.918V4.125H15.082V1.28906ZM4.125 31.7109H1.28906V28.875H4.125V31.7109ZM4.125 17.918H1.28906V15.082H4.125V17.918ZM1.28906 1.28906H4.125V4.125H1.28906V1.28906Z" fill="black"/>
<path d="M32.3555 5.41406C32.7115 5.41406 33 5.12553 33 4.76953V0.644531C33 0.288528 32.7115 0 32.3555 0H28.2305C27.8745 0 27.5859 0.288528 27.5859 0.644531V4.76953C27.5859 5.12553 27.8745 5.41406 28.2305 5.41406H29.7731V13.793H28.2305C27.8745 13.793 27.5859 14.0815 27.5859 14.4375V18.5625C27.5859 18.9185 27.8745 19.207 28.2305 19.207H29.7731V27.5859H28.2305C27.8745 27.5859 27.5859 27.8745 27.5859 28.2305V29.6484H19.207V28.2305C19.207 27.8745 18.9185 27.5859 18.5625 27.5859H14.4375C14.0815 27.5859 13.793 27.8745 13.793 28.2305V29.6484H9.92578C9.56978 29.6484 9.28125 29.937 9.28125 30.293C9.28125 30.649 9.56978 30.9375 9.92578 30.9375H13.793V32.3555C13.793 32.7115 14.0815 33 14.4375 33H18.5625C18.9185 33 19.207 32.7115 19.207 32.3555V30.9375H27.5859V32.3555C27.5859 32.7115 27.8745 33 28.2305 33H32.3555C32.7115 33 33 32.7115 33 32.3555V28.2305C33 27.8745 32.7115 27.5859 32.3555 27.5859H31.0621V19.207H32.3555C32.7115 19.207 33 18.9185 33 18.5625V14.4375C33 14.0815 32.7115 13.793 32.3555 13.793H31.0621V5.41406H32.3555ZM17.918 31.7109H15.082V28.875H17.918V31.7109ZM31.7109 31.7109H28.875V28.875H31.7109V31.7109ZM31.7109 17.918H28.875V15.082H31.7109V17.918ZM28.875 1.28906H31.7109V4.125H28.875V1.28906Z" fill="black"/>
<path d="M18.5625 13.793H14.4375C14.0815 13.793 13.793 14.0815 13.793 14.4375V18.5625C13.793 18.9185 14.0815 19.207 14.4375 19.207H18.5625C18.9185 19.207 19.207 18.9185 19.207 18.5625V14.4375C19.207 14.0815 18.9185 13.793 18.5625 13.793ZM17.918 17.918H15.082V15.082H17.918V17.918Z" fill="#FFA654"/>
<path d="M25.6523 3.4231C25.8218 3.4231 25.9882 3.35487 26.108 3.23502C26.2279 3.11443 26.2969 2.94801 26.2969 2.77856C26.2969 2.60912 26.2279 2.4427 26.108 2.32286C25.9882 2.20302 25.8218 2.13403 25.6523 2.13403C25.4829 2.13403 25.3165 2.20302 25.1966 2.32286C25.0768 2.4427 25.0078 2.60912 25.0078 2.77856C25.0078 2.94801 25.0768 3.11443 25.1966 3.23502C25.3165 3.35487 25.4829 3.4231 25.6523 3.4231Z" fill="#FFA654"/>
<path d="M7.34766 29.6484C7.17822 29.6484 7.01179 29.7174 6.89195 29.8373C6.77211 29.9571 6.70312 30.1235 6.70312 30.293C6.70312 30.4624 6.77211 30.6288 6.89195 30.7487C7.01179 30.8685 7.17822 30.9375 7.34766 30.9375C7.5171 30.9375 7.68352 30.8685 7.80336 30.7487C7.9232 30.6288 7.99219 30.4624 7.99219 30.293C7.99219 30.1235 7.9232 29.9571 7.80336 29.8373C7.68352 29.7174 7.5171 29.6484 7.34766 29.6484Z" fill="black"/>
</svg>
