<svg width="33" height="33" viewBox="0 0 33 33" fill="none" xmlns="http://www.w3.org/2000/svg">
<path d="M32.3555 6.96094H26.0391V0.644531C26.0391 0.288528 25.7505 0 25.3945 0H0.644531C0.288528 0 0 0.288528 0 0.644531V25.3945C0 25.7505 0.288528 26.0391 0.644531 26.0391H6.96094V32.3555C6.96094 32.7115 7.24947 33 7.60547 33H17.3701C17.7261 33 18.0146 32.7115 18.0146 32.3555C18.0146 31.9995 17.7261 31.7109 17.3701 31.7109H8.25V25.9849C8.4776 25.8855 8.63672 25.6586 8.63672 25.3945C8.63672 25.0385 8.34819 24.75 7.99219 24.75H1.28906V1.28906H24.75V7.01507C24.5224 7.11452 24.3633 7.34136 24.3633 7.60547C24.3633 7.96147 24.6518 8.25 25.0078 8.25H31.7109V31.7109H22.5586C22.2026 31.7109 21.9141 31.9995 21.9141 32.3555C21.9141 32.7115 22.2026 33 22.5586 33H32.3555C32.7115 33 33 32.7115 33 32.3555V7.60547C33 7.24947 32.7115 6.96094 32.3555 6.96094Z" fill="black"/>
<path d="M24.75 22.4297C24.75 22.7857 25.0385 23.0742 25.3945 23.0742C25.7505 23.0742 26.0391 22.7857 26.0391 22.4297V22.043C26.0391 21.687 25.7505 21.3984 25.3945 21.3984C25.0385 21.3984 24.75 21.687 24.75 22.043V22.4297Z" fill="#BD9EFF"/>
<path d="M24.75 16.5C24.75 16.856 25.0385 17.1445 25.3945 17.1445C25.7505 17.1445 26.0391 16.856 26.0391 16.5V16.1133C26.0391 15.7573 25.7505 15.4688 25.3945 15.4688C25.0385 15.4688 24.75 15.7573 24.75 16.1133V16.5Z" fill="#BD9EFF"/>
<path d="M25.3945 11.2148C25.7505 11.2148 26.0391 10.9263 26.0391 10.5703V10.1836C26.0391 9.82759 25.7505 9.53906 25.3945 9.53906C25.0385 9.53906 24.75 9.82759 24.75 10.1836V10.5703C24.75 10.9263 25.0385 11.2148 25.3945 11.2148Z" fill="#BD9EFF"/>
<path d="M24.75 19.4648C24.75 19.8208 25.0385 20.1094 25.3945 20.1094C25.7505 20.1094 26.0391 19.8208 26.0391 19.4648V19.0781C26.0391 18.7221 25.7505 18.4336 25.3945 18.4336C25.0385 18.4336 24.75 18.7221 24.75 19.0781V19.4648Z" fill="#BD9EFF"/>
<path d="M19.4648 8.25C19.8208 8.25 20.1094 7.96147 20.1094 7.60547C20.1094 7.24947 19.8208 6.96094 19.4648 6.96094H19.0781C18.7221 6.96094 18.4336 7.24947 18.4336 7.60547C18.4336 7.96147 18.7221 8.25 19.0781 8.25H19.4648Z" fill="#BD9EFF"/>
<path d="M19.8516 26.0391C20.2076 26.0391 20.4961 25.7505 20.4961 25.3945C20.4961 25.0385 20.2076 24.75 19.8516 24.75H19.4648C19.1088 24.75 18.8203 25.0385 18.8203 25.3945C18.8203 25.7505 19.1088 26.0391 19.4648 26.0391H19.8516Z" fill="#BD9EFF"/>
<path d="M24.75 25.3945C24.75 25.7505 25.0385 26.0391 25.3945 26.0391C25.7505 26.0391 26.0391 25.7505 26.0391 25.3945V25.0078C26.0391 24.6518 25.7505 24.3633 25.3945 24.3633C25.0385 24.3633 24.75 24.6518 24.75 25.0078V25.3945Z" fill="#BD9EFF"/>
<path d="M22.4297 8.25C22.7857 8.25 23.0742 7.96147 23.0742 7.60547C23.0742 7.24947 22.7857 6.96094 22.4297 6.96094H22.043C21.687 6.96094 21.3984 7.24947 21.3984 7.60547C21.3984 7.96147 21.687 8.25 22.043 8.25H22.4297Z" fill="#BD9EFF"/>
<path d="M22.4297 26.0391H22.8164C23.1724 26.0391 23.4609 25.7505 23.4609 25.3945C23.4609 25.0385 23.1724 24.75 22.8164 24.75H22.4297C22.0737 24.75 21.7852 25.0385 21.7852 25.3945C21.7852 25.7505 22.0737 26.0391 22.4297 26.0391Z" fill="#BD9EFF"/>
<path d="M24.75 13.5352C24.75 13.8912 25.0385 14.1797 25.3945 14.1797C25.7505 14.1797 26.0391 13.8912 26.0391 13.5352V13.1484C26.0391 12.7924 25.7505 12.5039 25.3945 12.5039C25.0385 12.5039 24.75 12.7924 24.75 13.1484V13.5352Z" fill="#BD9EFF"/>
<path d="M13.5352 8.25C13.8912 8.25 14.1797 7.96147 14.1797 7.60547C14.1797 7.24947 13.8912 6.96094 13.5352 6.96094H13.1484C12.7924 6.96094 12.5039 7.24947 12.5039 7.60547C12.5039 7.96147 12.7924 8.25 13.1484 8.25H13.5352Z" fill="#BD9EFF"/>
<path d="M8.25 13.5352C8.25 13.1792 7.96147 12.8906 7.60547 12.8906C7.24947 12.8906 6.96094 13.1792 6.96094 13.5352V13.9219C6.96094 14.2779 7.24947 14.5664 7.60547 14.5664C7.96147 14.5664 8.25 14.2779 8.25 13.9219V13.5352Z" fill="#BD9EFF"/>
<path d="M8.25 16.5C8.25 16.144 7.96147 15.8555 7.60547 15.8555C7.24947 15.8555 6.96094 16.144 6.96094 16.5V16.8867C6.96094 17.2427 7.24947 17.5312 7.60547 17.5312C7.96147 17.5312 8.25 17.2427 8.25 16.8867V16.5Z" fill="#BD9EFF"/>
<path d="M8.25 7.60547C8.25 7.24947 7.96147 6.96094 7.60547 6.96094C7.24947 6.96094 6.96094 7.24947 6.96094 7.60547V7.99219C6.96094 8.34819 7.24947 8.63672 7.60547 8.63672C7.96147 8.63672 8.25 8.34819 8.25 7.99219V7.60547Z" fill="#BD9EFF"/>
<path d="M8.25 10.5703C8.25 10.2143 7.96147 9.92578 7.60547 9.92578C7.24947 9.92578 6.96094 10.2143 6.96094 10.5703V10.957C6.96094 11.313 7.24947 11.6016 7.60547 11.6016C7.96147 11.6016 8.25 11.313 8.25 10.957V10.5703Z" fill="#BD9EFF"/>
<path d="M7.60547 21.7852C7.24947 21.7852 6.96094 22.0737 6.96094 22.4297V22.8164C6.96094 23.1724 7.24947 23.4609 7.60547 23.4609C7.96147 23.4609 8.25 23.1724 8.25 22.8164V22.4297C8.25 22.0737 7.96147 21.7852 7.60547 21.7852Z" fill="#BD9EFF"/>
<path d="M8.25 19.4648C8.25 19.1088 7.96147 18.8203 7.60547 18.8203C7.24947 18.8203 6.96094 19.1088 6.96094 19.4648V19.8516C6.96094 20.2076 7.24947 20.4961 7.60547 20.4961C7.96147 20.4961 8.25 20.2076 8.25 19.8516V19.4648Z" fill="#BD9EFF"/>
<path d="M13.5352 26.0391H13.9219C14.2779 26.0391 14.5664 25.7505 14.5664 25.3945C14.5664 25.0385 14.2779 24.75 13.9219 24.75H13.5352C13.1792 24.75 12.8906 25.0385 12.8906 25.3945C12.8906 25.7505 13.1792 26.0391 13.5352 26.0391Z" fill="#BD9EFF"/>
<path d="M16.5 26.0391H16.8867C17.2427 26.0391 17.5312 25.7505 17.5312 25.3945C17.5312 25.0385 17.2427 24.75 16.8867 24.75H16.5C16.144 24.75 15.8555 25.0385 15.8555 25.3945C15.8555 25.7505 16.144 26.0391 16.5 26.0391Z" fill="#BD9EFF"/>
<path d="M16.5 8.25C16.856 8.25 17.1445 7.96147 17.1445 7.60547C17.1445 7.24947 16.856 6.96094 16.5 6.96094H16.1133C15.7573 6.96094 15.4688 7.24947 15.4688 7.60547C15.4688 7.96147 15.7573 8.25 16.1133 8.25H16.5Z" fill="#BD9EFF"/>
<path d="M10.5703 8.25C10.9263 8.25 11.2148 7.96147 11.2148 7.60547C11.2148 7.24947 10.9263 6.96094 10.5703 6.96094H10.1836C9.82759 6.96094 9.53906 7.24947 9.53906 7.60547C9.53906 7.96147 9.82759 8.25 10.1836 8.25H10.5703Z" fill="#BD9EFF"/>
<path d="M10.5703 26.0391H10.957C11.313 26.0391 11.6016 25.7505 11.6016 25.3945C11.6016 25.0385 11.313 24.75 10.957 24.75H10.5703C10.2143 24.75 9.92578 25.0385 9.92578 25.3945C9.92578 25.7505 10.2143 26.0391 10.5703 26.0391Z" fill="#BD9EFF"/>
<path d="M19.9805 31.7109C19.811 31.7109 19.6446 31.7799 19.5248 31.8998C19.4049 32.0196 19.3359 32.186 19.3359 32.3555C19.3359 32.5249 19.4049 32.6913 19.5248 32.8112C19.6446 32.931 19.811 33 19.9805 33C20.1499 33 20.3163 32.931 20.4362 32.8112C20.556 32.6913 20.625 32.5249 20.625 32.3555C20.625 32.186 20.556 32.0196 20.4362 31.8998C20.3163 31.7799 20.1499 31.7109 19.9805 31.7109Z" fill="black"/>
</svg>
