<svg id="Layer_1" data-name="Layer 1" xmlns="http://www.w3.org/2000/svg" width="8.61in" height="3.2in" viewBox="0 0 619.92 230.4"><defs><style>.cls-1{isolation:isolate}.cls-2{fill:#9e5125}.cls-3{fill:#f48537}.cls-4{fill:#f6bc93}.cls-5{fill:#201c1d}</style></defs><title>amazon-kinesis-firehose</title><path d="M278.59 135.43h3.87v15.22h.09l10.87-15.22h4.31l-9.5 13.11 10.29 18.3h-4.32l-8.49-15.13-3.26 4.44v10.69h-3.87zm22.87 0h3.87v31.41h-3.87zm9.86 0h5l10.38 26.22h.09v-26.22h3.87v31.41h-5.32l-10.07-25.43h-.09v25.43h-3.87zm25.34 0h16.23v3.43h-12.36v9.85h11.66v3.43h-11.66v11.26h12.89v3.43h-16.76zm34.58 8.14c0-3.3-1.19-5.59-4.88-5.59-3.25 0-5.19 1.76-5.19 5.1 0 8.84 14.83 3.56 14.83 15 0 7.26-5.32 9.33-9.77 9.33-7.35 0-9.5-3.78-9.5-10.47h3.87c0 3.52.22 7.3 5.9 7.3a5.29 5.29 0 0 0 5.45-5.54c0-8.89-14.83-3.74-14.83-15.27 0-2.9 1.23-8.67 9.19-8.67 6 0 8.71 3 8.8 8.75zm9.54-8.14h3.87v31.41h-3.87zm23.22 8.14c0-3.3-1.19-5.59-4.88-5.59-3.25 0-5.19 1.76-5.19 5.1 0 8.84 14.82 3.56 14.82 15 0 7.26-5.32 9.33-9.77 9.33-7.35 0-9.5-3.78-9.5-10.47h3.87c0 3.52.22 7.3 5.89 7.3a5.29 5.29 0 0 0 5.46-5.54c0-8.89-14.82-3.74-14.82-15.27 0-2.9 1.23-8.67 9.19-8.67 6 0 8.71 3 8.8 8.75zm21-8.14h16.23v3.43h-12.4v9.85h11.66v3.43h-11.66v14.69H425zm20.37 0h3.87v31.41h-3.87zm9.85 0h10.16c4.93 0 8 2.9 8 7.87 0 3.43-1.19 7-4.84 7.92v.09c2.73.31 4.27 2.55 4.44 5.24l.26 5.37c.18 3.48.75 4.36 1.67 4.93h-4.66c-.66-.66-1-3-1.06-4.53l-.26-4.88c-.31-4.31-2.68-4.57-4.66-4.57h-5.23v14h-3.87zm3.87 14.25h3.83c2.29 0 6.47 0 6.47-6.07 0-3.08-2.07-5-5.67-5h-4.62zm19.84-14.25h16.23v3.43h-12.35v9.85h11.66v3.43h-11.66v11.26h12.89v3.43h-16.77zm39.77 31.41h-3.87v-15.13h-10.78v15.13h-3.87v-31.41h3.87v12.84h10.78v-12.84h3.87zm25.78-15.71c0 7.92-1.45 16.32-10.12 16.32s-10.12-8.4-10.12-16.32 1.45-16.32 10.12-16.32 10.12 8.4 10.12 16.32zm-16.19 0c0 7.26.7 13.15 6.07 13.15s6.07-5.89 6.07-13.15-.7-13.15-6.07-13.15-6.07 5.9-6.07 13.15zm35.07-7.56c0-3.3-1.19-5.59-4.88-5.59-3.26 0-5.19 1.76-5.19 5.1 0 8.84 14.83 3.56 14.83 15 0 7.26-5.32 9.33-9.77 9.33-7.35 0-9.5-3.78-9.5-10.47h3.87c0 3.52.22 7.3 5.89 7.3a5.29 5.29 0 0 0 5.46-5.54c0-8.89-14.83-3.74-14.83-15.27 0-2.9 1.23-8.67 9.19-8.67 6 0 8.71 3 8.8 8.75zm9.55-8.14h16.23v3.43h-12.36v9.85h11.66v3.43h-11.66v11.26h12.89v3.43h-16.76z" class="cls-1" id="KINESIS"/><g id="KINESIS-2"><path class="cls-2" d="M48.73 47.69C80.09 32 111.59 16.5 143 .85V114H48.74q-.03-33.14-.01-66.31z"/><path class="cls-3" d="M143 .85c6.36 3.07 12.65 6.3 19 9.44V114h-19z"/><path class="cls-2" d="M162 42.23c5.42-1.58 10.88-3 16.3-4.64-.13 25.48 0 51 0 76.44H162z"/><path class="cls-3" d="M178.28 37.6c4.91 1.87 9.79 3.83 14.7 5.7V114h-14.75c.03-25.45-.08-51 .05-76.4z"/><path class="cls-2" d="M205.38 61.19c7.45-1.38 14.91-2.73 22.35-4.16v57H217V68.12c-3.76-1.16-7.54-2.21-11.34-3.21-.14-1.24-.21-2.48-.28-3.72z"/><path class="cls-3" d="M227.73 57c3.18 1.21 6.35 2.46 9.5 3.78V114h-9.45c-.08-19-.03-38-.05-57z"/><path class="cls-2" d="M193 67c4.14-.73 8.32-1.27 12.46-2.08.06 16.39 0 32.78 0 49.16H193z"/><path class="cls-3" d="M205.44 64.87h.16c3.8 1 7.58 2 11.34 3.21v45.9h-11.48c0-16.33.04-32.72-.02-49.11z"/><path class="cls-4" d="M125 124c8-.17 16-1 24-.47q36 1.47 72.07 2.89c3.44.16 7-.09 10.27 1.11-1.93.34-3.85.73-5.8.95-27.6 2.7-55.18 5.55-82.79 8.19q-47-4.52-94-9.44c25.39-1.45 50.83-2.1 76.25-3.23z"/><path class="cls-3" d="M231.33 127.52a52.87 52.87 0 0 1 5.64-.38v19.94c-11.17 2.77-22.36 5.48-33.53 8.3-20.24 4.9-40.44 10-60.68 14.87v-33.59c27.61-2.64 55.19-5.49 82.79-8.19 1.93-.22 3.85-.61 5.78-.95z"/><path class="cls-2" d="M48.74 127.22q47 4.91 94 9.44v33.59c-20.32-4.82-40.54-10-60.86-14.93-11-2.81-22.11-5.44-33.15-8.24z"/><path class="cls-4" d="M81.89 155.32c20.32 4.88 40.54 10.11 60.86 14.93 20.24-4.9 40.44-10 60.68-14.87 11.24 1.82 22.53 3.23 33.78 4.94-31.51 10.9-62.88 22.19-94.39 33.08-31.28-11.27-62.72-22.07-94.08-33.12 11.05-1.67 22.18-2.86 33.15-4.96z"/><path class="cls-2" d="M48.74 160.28c31.36 11 62.8 21.85 94.08 33.12-.18 11.25 0 22.5-.09 33.75-31.37-15.53-62.65-31.21-94-46.76.02-6.71-.01-13.39.01-20.11z"/><path class="cls-3" d="M142.82 193.39c31.51-10.89 62.88-22.18 94.39-33.08V180c-31.42 15.86-63 31.3-94.48 47.12.07-11.23-.09-22.48.09-33.73z"/></g><path id="Amazon" class="cls-5" d="M302.12 54.52c-9.24 0-19.45 3.58-21.68 15.28a1.65 1.65 0 0 0 1.22 2h.19l9.48 1.14a2.11 2.11 0 0 0 1.52-2 7.42 7.42 0 0 1 7.83-5.9 6.48 6.48 0 0 1 5.42 2.52 13 13 0 0 1 1.27 7.21v1.38A66.05 66.05 0 0 0 289 79.56a17 17 0 0 0-10.35 16.26c0 10.38 6.48 15.55 14.52 15.55a19 19 0 0 0 16.07-7.21 23.82 23.82 0 0 0 5.42 6.48 2 2 0 0 0 2.28-.27c2-1.79 5.42-5 7.45-6.69a1.92 1.92 0 0 0 0-2.71 13.71 13.71 0 0 1-3.66-9.21v-15.1c0-6.48.54-12.65-4.17-17.21a21.68 21.68 0 0 0-14.44-4.93zm127.33 0c-9.24 0-19.45 3.58-21.68 15.28a1.65 1.65 0 0 0 1.22 2h.19l9.48 1.14a2.11 2.11 0 0 0 1.65-2 7.42 7.42 0 0 1 7.84-5.9 6.48 6.48 0 0 1 5.42 2.52 13 13 0 0 1 1.14 7.21v1.38a65.21 65.21 0 0 0-18.21 3.41 17 17 0 0 0-10.35 16.26c0 10.38 6.48 15.55 14.52 15.55a19 19 0 0 0 16.07-7.21 23.71 23.71 0 0 0 5.42 6.48 2 2 0 0 0 2.28-.27c2-1.79 5.42-5 7.45-6.69a2 2 0 0 0 0-2.71 13.71 13.71 0 0 1-3.66-9.21v-15.1c0-6.48.43-12.65-4.28-17.21a21.41 21.41 0 0 0-14.47-4.93zm-71.63.48A13 13 0 0 0 345 64.47V57.8a1.92 1.92 0 0 0-1.75-1.8h-9a1.92 1.92 0 0 0-1.87 1.87V109a2 2 0 0 0 1.79 1.79h9.73a1.92 1.92 0 0 0 1.87-1.87V81.88c0-5.93-.3-14 6.69-14s5.93 8.35 5.93 14V109a2 2 0 0 0 1.79 1.87h9.73a1.92 1.92 0 0 0 1.87-1.87V81.88a31.11 31.11 0 0 1 .87-9.73 6.48 6.48 0 0 1 5.72-4.34 5.07 5.07 0 0 1 5.63 4.37 67.73 67.73 0 0 1 .27 9.73V109a2 2 0 0 0 1.79 1.87h9.73a1.92 1.92 0 0 0 1.87-1.87V76.49c0-5.42.54-11.73-2.52-16.07a14.17 14.17 0 0 0-24.39 4c-3-6.39-6.8-9.35-12.87-9.35zm165.45 0c-14 0-21.87 12.36-21.87 28.29s7.72 28.56 21.87 28.56c13.55 0 22.22-12.44 22.22-28.07 0-16.09-7.88-28.78-22.41-28.78zm55.48 0c-6.72 0-10.54 3.25-13.28 10.35v-7.8a1.87 1.87 0 0 0-1.79-1.38h-9a1.84 1.84 0 0 0-1.87 1.65V109a2 2 0 0 0 1.79 1.87h9.73a1.92 1.92 0 0 0 1.87-1.87V81.45a23.65 23.65 0 0 1 1.72-9.73 6.23 6.23 0 0 1 5.23-4.12c6.72 0 6.07 8.13 6.07 13.76v27.8a1.92 1.92 0 0 0 1.79 1.65h9.73a1.92 1.92 0 0 0 1.87-1.65V77c0-5 0-11.84-2.52-15.93A12.76 12.76 0 0 0 578.7 55h.06zm-116.81.86a1.79 1.79 0 0 0-1.79 1.79V65a1.79 1.79 0 0 0 1.68 1.87h16.77L459.66 95a9.32 9.32 0 0 0-1.35 5v7.45a1.68 1.68 0 0 0 2.28 1.65 35.9 35.9 0 0 1 33.73 0 1.76 1.76 0 0 0 2.41-1.65v-7.71a3.25 3.25 0 0 0-1.79-2.7A34.68 34.68 0 0 0 476.73 93l16.56-24.39A10.24 10.24 0 0 0 495.7 64v-6.2a1.79 1.79 0 0 0-1.7-1.87h-32.06zm61.28 9.73a6.2 6.2 0 0 1 6.48 4.93 48.36 48.36 0 0 1 1.38 13.55c0 6.48-.33 17.42-7.83 17.42s-7.59-13.55-7.59-19.7.34-16.22 7.34-16.22zm-216 18.56v2.14a20.1 20.1 0 0 1-1.79 10.57 7.86 7.86 0 0 1-6.69 4.55c-3.74 0-5.93-3-5.93-7.34-.11-8.4 7.45-9.89 14.44-9.89zm127.33 0v2.14a20.08 20.08 0 0 1-1.79 10.62 7.83 7.83 0 0 1-6.69 4.55c-3.74 0-5.93-3-5.93-7.34 0-8.48 7.37-10 14.36-10z"/></svg>