<svg width="33" height="33" viewBox="0 0 33 33" fill="none" xmlns="http://www.w3.org/2000/svg">
<path d="M15.3398 3.86719H15.7266C16.0826 3.86719 16.3711 3.57866 16.3711 3.22266C16.3711 2.86665 16.0826 2.57812 15.7266 2.57812H15.3398C14.9838 2.57812 14.6953 2.86665 14.6953 3.22266C14.6953 3.57866 14.9838 3.86719 15.3398 3.86719Z" fill="black"/>
<path d="M12.375 3.86719H12.7617C13.1177 3.86719 13.4062 3.57866 13.4062 3.22266C13.4062 2.86665 13.1177 2.57812 12.7617 2.57812H12.375C12.019 2.57812 11.7305 2.86665 11.7305 3.22266C11.7305 3.57866 12.019 3.86719 12.375 3.86719Z" fill="black"/>
<path d="M18.3047 3.86719H18.6914C19.0474 3.86719 19.3359 3.57866 19.3359 3.22266C19.3359 2.86665 19.0474 2.57812 18.6914 2.57812H18.3047C17.9487 2.57812 17.6602 2.86665 17.6602 3.22266C17.6602 3.57866 17.9487 3.86719 18.3047 3.86719Z" fill="black"/>
<path d="M24.2344 3.86719H24.6211C24.9771 3.86719 25.2656 3.57866 25.2656 3.22266C25.2656 2.86665 24.9771 2.57812 24.6211 2.57812H24.2344C23.8784 2.57812 23.5898 2.86665 23.5898 3.22266C23.5898 3.57866 23.8784 3.86719 24.2344 3.86719Z" fill="black"/>
<path d="M21.2695 3.86719H21.6562C22.0123 3.86719 22.3008 3.57866 22.3008 3.22266C22.3008 2.86665 22.0123 2.57812 21.6562 2.57812H21.2695C20.9135 2.57812 20.625 2.86665 20.625 3.22266C20.625 3.57866 20.9135 3.86719 21.2695 3.86719Z" fill="black"/>
<path d="M3.22266 28.6172C2.91071 28.6172 2.65089 28.8387 2.59097 29.1328H0.644531C0.288528 29.1328 0 29.4213 0 29.7773C0 30.1333 0.288528 30.4219 0.644531 30.4219H2.57812V32.3555C2.57812 32.7115 2.86665 33 3.22266 33C3.57866 33 3.86719 32.7115 3.86719 32.3555V29.7773C3.86719 29.7554 3.86593 29.734 3.86391 29.7129C3.86618 29.6917 3.86719 29.6703 3.86719 29.6484V29.2617C3.86719 28.9057 3.57866 28.6172 3.22266 28.6172Z" fill="#75D6FF"/>
<path d="M9.41016 3.86719H9.79688C10.1529 3.86719 10.4414 3.57866 10.4414 3.22266C10.4414 2.86665 10.1529 2.57812 9.79688 2.57812H9.41016C9.05415 2.57812 8.76562 2.86665 8.76562 3.22266C8.76562 3.57866 9.05415 3.86719 9.41016 3.86719Z" fill="black"/>
<path d="M3.22266 22.6875C2.86665 22.6875 2.57812 22.976 2.57812 23.332V23.7188C2.57812 24.0748 2.86665 24.3633 3.22266 24.3633C3.57866 24.3633 3.86719 24.0748 3.86719 23.7188V23.332C3.86719 22.976 3.57866 22.6875 3.22266 22.6875Z" fill="black"/>
<path d="M6.44531 3.86719H6.83203C7.18803 3.86719 7.47656 3.57866 7.47656 3.22266C7.47656 2.86665 7.18803 2.57812 6.83203 2.57812H6.44531C6.08931 2.57812 5.80078 2.86665 5.80078 3.22266C5.80078 3.57866 6.08931 3.86719 6.44531 3.86719Z" fill="black"/>
<path d="M29.7773 7.60547C30.1333 7.60547 30.4219 7.31694 30.4219 6.96094V6.57422C30.4219 6.21822 30.1333 5.92969 29.7773 5.92969C29.4213 5.92969 29.1328 6.21822 29.1328 6.57422V6.96094C29.1328 7.31694 29.4213 7.60547 29.7773 7.60547Z" fill="black"/>
<path d="M29.7773 13.5352C30.1333 13.5352 30.4219 13.2466 30.4219 12.8906V12.5039C30.4219 12.1479 30.1333 11.8594 29.7773 11.8594C29.4213 11.8594 29.1328 12.1479 29.1328 12.5039V12.8906C29.1328 13.2466 29.4213 13.5352 29.7773 13.5352Z" fill="black"/>
<path d="M29.7773 28.3594C30.1333 28.3594 30.4219 28.0708 30.4219 27.7148V27.3281C30.4219 26.9721 30.1333 26.6836 29.7773 26.6836C29.4213 26.6836 29.1328 26.9721 29.1328 27.3281V27.7148C29.1328 28.0708 29.4213 28.3594 29.7773 28.3594Z" fill="black"/>
<path d="M29.7773 4.64062C30.1333 4.64062 30.4219 4.3521 30.4219 3.99609V3.86719H32.3555C32.7115 3.86719 33 3.57866 33 3.22266C33 2.86665 32.7115 2.57812 32.3555 2.57812H30.4219V0.644531C30.4219 0.288528 30.1333 0 29.7773 0C29.4213 0 29.1328 0.288528 29.1328 0.644531V3.22266C29.1328 3.29013 29.1431 3.35509 29.1625 3.41602C29.1431 3.47694 29.1328 3.5419 29.1328 3.60938V3.99609C29.1328 4.3521 29.4213 4.64062 29.7773 4.64062Z" fill="#75D6FF"/>
<path d="M29.7773 10.5703C30.1333 10.5703 30.4219 10.2818 30.4219 9.92578V9.53906C30.4219 9.18306 30.1333 8.89453 29.7773 8.89453C29.4213 8.89453 29.1328 9.18306 29.1328 9.53906V9.92578C29.1328 10.2818 29.4213 10.5703 29.7773 10.5703Z" fill="black"/>
<path d="M29.7773 22.4297C30.1333 22.4297 30.4219 22.1412 30.4219 21.7852V21.3984C30.4219 21.0424 30.1333 20.7539 29.7773 20.7539C29.4213 20.7539 29.1328 21.0424 29.1328 21.3984V21.7852C29.1328 22.1412 29.4213 22.4297 29.7773 22.4297Z" fill="black"/>
<path d="M29.7773 25.3945C30.1333 25.3945 30.4219 25.106 30.4219 24.75V24.3633C30.4219 24.0073 30.1333 23.7188 29.7773 23.7188C29.4213 23.7188 29.1328 24.0073 29.1328 24.3633V24.75C29.1328 25.106 29.4213 25.3945 29.7773 25.3945Z" fill="black"/>
<path d="M29.7773 19.4648C30.1333 19.4648 30.4219 19.1763 30.4219 18.8203V18.4336C30.4219 18.0776 30.1333 17.7891 29.7773 17.7891C29.4213 17.7891 29.1328 18.0776 29.1328 18.4336V18.8203C29.1328 19.1763 29.4213 19.4648 29.7773 19.4648Z" fill="black"/>
<path d="M29.7773 16.5C30.1333 16.5 30.4219 16.2115 30.4219 15.8555V15.4688C30.4219 15.1127 30.1333 14.8242 29.7773 14.8242C29.4213 14.8242 29.1328 15.1127 29.1328 15.4688V15.8555C29.1328 16.2115 29.4213 16.5 29.7773 16.5Z" fill="black"/>
<path d="M3.22266 25.6523C2.86665 25.6523 2.57812 25.9409 2.57812 26.2969V26.6836C2.57812 27.0396 2.86665 27.3281 3.22266 27.3281C3.57866 27.3281 3.86719 27.0396 3.86719 26.6836V26.2969C3.86719 25.9409 3.57866 25.6523 3.22266 25.6523Z" fill="black"/>
<path d="M9.02344 29.1328H8.63672C8.28072 29.1328 7.99219 29.4213 7.99219 29.7773C7.99219 30.1333 8.28072 30.4219 8.63672 30.4219H9.02344C9.37944 30.4219 9.66797 30.1333 9.66797 29.7773C9.66797 29.4213 9.37944 29.1328 9.02344 29.1328Z" fill="black"/>
<path d="M14.9531 29.1328H14.5664C14.2104 29.1328 13.9219 29.4213 13.9219 29.7773C13.9219 30.1333 14.2104 30.4219 14.5664 30.4219H14.9531C15.3091 30.4219 15.5977 30.1333 15.5977 29.7773C15.5977 29.4213 15.3091 29.1328 14.9531 29.1328Z" fill="black"/>
<path d="M17.918 29.1328H17.5312C17.1752 29.1328 16.8867 29.4213 16.8867 29.7773C16.8867 30.1333 17.1752 30.4219 17.5312 30.4219H17.918C18.274 30.4219 18.5625 30.1333 18.5625 29.7773C18.5625 29.4213 18.274 29.1328 17.918 29.1328Z" fill="black"/>
<path d="M11.9883 29.1328H11.6016C11.2456 29.1328 10.957 29.4213 10.957 29.7773C10.957 30.1333 11.2456 30.4219 11.6016 30.4219H11.9883C12.3443 30.4219 12.6328 30.1333 12.6328 29.7773C12.6328 29.4213 12.3443 29.1328 11.9883 29.1328Z" fill="black"/>
<path d="M20.8828 29.1328H20.4961C20.1401 29.1328 19.8516 29.4213 19.8516 29.7773C19.8516 30.1333 20.1401 30.4219 20.4961 30.4219H20.8828C21.2388 30.4219 21.5273 30.1333 21.5273 29.7773C21.5273 29.4213 21.2388 29.1328 20.8828 29.1328Z" fill="black"/>
<path d="M3.22266 19.7227C2.86665 19.7227 2.57812 20.0112 2.57812 20.3672V20.7539C2.57812 21.1099 2.86665 21.3984 3.22266 21.3984C3.57866 21.3984 3.86719 21.1099 3.86719 20.7539V20.3672C3.86719 20.0112 3.57866 19.7227 3.22266 19.7227Z" fill="black"/>
<path d="M23.8477 29.1328H23.4609C23.1049 29.1328 22.8164 29.4213 22.8164 29.7773C22.8164 30.1333 23.1049 30.4219 23.4609 30.4219H23.8477C24.2037 30.4219 24.4922 30.1333 24.4922 29.7773C24.4922 29.4213 24.2037 29.1328 23.8477 29.1328Z" fill="black"/>
<path d="M26.8125 29.1328H26.4258C26.0698 29.1328 25.7812 29.4213 25.7812 29.7773C25.7812 30.1333 26.0698 30.4219 26.4258 30.4219H26.8125C27.1685 30.4219 27.457 30.1333 27.457 29.7773C27.457 29.4213 27.1685 29.1328 26.8125 29.1328Z" fill="black"/>
<path d="M27.5859 2.57812H27.1992C26.8432 2.57812 26.5547 2.86665 26.5547 3.22266C26.5547 3.57866 26.8432 3.86719 27.1992 3.86719H27.5859C27.9419 3.86719 28.2305 3.57866 28.2305 3.22266C28.2305 2.86665 27.9419 2.57812 27.5859 2.57812Z" fill="black"/>
<path d="M6.05859 29.1328H5.67188C5.31587 29.1328 5.02734 29.4213 5.02734 29.7773C5.02734 30.1333 5.31587 30.4219 5.67188 30.4219H6.05859C6.4146 30.4219 6.70312 30.1333 6.70312 29.7773C6.70312 29.4213 6.4146 29.1328 6.05859 29.1328Z" fill="black"/>
<path d="M3.22266 10.8281C2.86665 10.8281 2.57812 11.1167 2.57812 11.4727V11.8594C2.57812 12.2154 2.86665 12.5039 3.22266 12.5039C3.57866 12.5039 3.86719 12.2154 3.86719 11.8594V11.4727C3.86719 11.1167 3.57866 10.8281 3.22266 10.8281Z" fill="black"/>
<path d="M3.22266 16.7578C2.86665 16.7578 2.57812 17.0463 2.57812 17.4023V17.7891C2.57812 18.1451 2.86665 18.4336 3.22266 18.4336C3.57866 18.4336 3.86719 18.1451 3.86719 17.7891V17.4023C3.86719 17.0463 3.57866 16.7578 3.22266 16.7578Z" fill="black"/>
<path d="M3.22266 13.793C2.86665 13.793 2.57812 14.0815 2.57812 14.4375V14.8242C2.57812 15.1802 2.86665 15.4688 3.22266 15.4688C3.57866 15.4688 3.86719 15.1802 3.86719 14.8242V14.4375C3.86719 14.0815 3.57866 13.793 3.22266 13.793Z" fill="black"/>
<path d="M3.86719 2.57812V0.644531C3.86719 0.288528 3.57866 0 3.22266 0C2.86665 0 2.57812 0.288528 2.57812 0.644531V2.57812H0.644531C0.288528 2.57812 0 2.86665 0 3.22266C0 3.57866 0.288528 3.86719 0.644531 3.86719H3.22266C3.26672 3.86719 3.31002 3.86266 3.35156 3.85435C3.3931 3.86266 3.43641 3.86719 3.48047 3.86719H3.86719C4.22319 3.86719 4.51172 3.57866 4.51172 3.22266C4.51172 2.86665 4.22319 2.57812 3.86719 2.57812Z" fill="#75D6FF"/>
<path d="M3.22266 4.89844C2.86665 4.89844 2.57812 5.18697 2.57812 5.54297V5.92969C2.57812 6.28569 2.86665 6.57422 3.22266 6.57422C3.57866 6.57422 3.86719 6.28569 3.86719 5.92969V5.54297C3.86719 5.18697 3.57866 4.89844 3.22266 4.89844Z" fill="black"/>
<path d="M3.22266 7.86328C2.86665 7.86328 2.57812 8.15181 2.57812 8.50781V8.89453C2.57812 9.25053 2.86665 9.53906 3.22266 9.53906C3.57866 9.53906 3.86719 9.25053 3.86719 8.89453V8.50781C3.86719 8.15181 3.57866 7.86328 3.22266 7.86328Z" fill="black"/>
<path d="M27.1992 5.15625H5.80078C5.44478 5.15625 5.15625 5.44478 5.15625 5.80078V27.1992C5.15625 27.5552 5.44478 27.8438 5.80078 27.8438H19.4648C19.8208 27.8438 20.1094 27.5552 20.1094 27.1992C20.1094 26.8432 19.8208 26.5547 19.4648 26.5547H6.44531V6.44531H26.5547V26.5547H24.6211C24.2651 26.5547 23.9766 26.8432 23.9766 27.1992C23.9766 27.5552 24.2651 27.8438 24.6211 27.8438H27.1992C27.5552 27.8438 27.8438 27.5552 27.8438 27.1992V5.80078C27.8438 5.44478 27.5552 5.15625 27.1992 5.15625Z" fill="black"/>
<path d="M32.3555 29.1328H29.3906C29.0346 29.1328 28.7461 29.4213 28.7461 29.7773C28.7461 30.0415 28.9052 30.2683 29.1328 30.3677V32.3555C29.1328 32.7115 29.4213 33 29.7773 33C30.1333 33 30.4219 32.7115 30.4219 32.3555V30.4219H32.3555C32.7115 30.4219 33 30.1333 33 29.7773C33 29.4213 32.7115 29.1328 32.3555 29.1328Z" fill="#75D6FF"/>
<path d="M22.043 26.5547C21.8735 26.5547 21.7071 26.6237 21.5873 26.7435C21.4674 26.8634 21.3984 27.0298 21.3984 27.1992C21.3984 27.3687 21.4674 27.5351 21.5873 27.6549C21.7071 27.7748 21.8735 27.8438 22.043 27.8438C22.2124 27.8438 22.3788 27.7748 22.4987 27.6549C22.6185 27.5351 22.6875 27.3687 22.6875 27.1992C22.6875 27.0298 22.6185 26.8634 22.4987 26.7435C22.3788 26.6237 22.2124 26.5547 22.043 26.5547Z" fill="black"/>
</svg>
