<?xml version="1.0" encoding="UTF-8"?>
<svg version="1.1" xmlns="http://www.w3.org/2000/svg" width="702" height="369">
<path d="M0 0 C1.010625 0.556875 2.02125 1.11375 3.0625 1.6875 C11.64512591 8.44403529 16.75916069 16.29376776 19 27 C20.05000324 37.31068757 17.94286289 47.50556998 11.75 55.9375 C6.86767748 61.63528538 0.96920464 66.14896174 -6 69 C-7.32 69 -8.64 69 -10 69 C-9.67 75.27 -9.34 81.54 -9 88 C-6.339375 88.7734375 -6.339375 88.7734375 -3.625 89.5625 C3.54607503 91.9443819 9.98209424 95.50306158 14.96875 101.28125 C16.86538042 103.2719374 16.86538042 103.2719374 19.42578125 102.94140625 C22.28122351 101.89715498 24.62742513 100.575793 27.1875 98.9375 C31.79764706 96 31.79764706 96 34 96 C33.84273438 95.4946875 33.68546875 94.989375 33.5234375 94.46875 C31.28344209 83.90399553 32.47281724 73.30893939 38 64 C44.17522641 55.44752242 51.80689651 49.86539465 62 47 C73.75422313 45.64106314 84.01841878 47.1917277 93.8125 54.1875 C101.51138157 60.61930267 106.9952015 69.95201497 108 80 C108.06445312 80.63292969 108.12890625 81.26585937 108.1953125 81.91796875 C108.7072676 91.28674715 105.75590681 101.03550043 99.6875 108.2265625 C91.0919743 117.25982331 82.93696292 121.49980492 70.30078125 122.09375 C61.51542925 121.84422521 54.45568167 119.1834715 47.15625 114.40234375 C46.4446875 113.93957031 45.733125 113.47679687 45 113 C44.38640625 112.52949219 43.7728125 112.05898437 43.140625 111.57421875 C40.75523909 110.68501118 40.75523909 110.68501118 37.765625 112.5546875 C36.58323313 113.31194971 35.41156205 114.08615896 34.25 114.875 C33.64800781 115.26558594 33.04601562 115.65617187 32.42578125 116.05859375 C30.94113535 117.02479188 29.46927061 118.01057788 28 119 C28.16113281 120.14597656 28.32226562 121.29195313 28.48828125 122.47265625 C29.02697952 126.80607864 29.19147476 131.0737057 29.1875 135.4375 C29.18814453 136.17669678 29.18878906 136.91589355 29.18945312 137.67749023 C29.13762826 143.03488534 28.50260933 147.83478044 27 153 C28.2375 153.3403125 28.2375 153.3403125 29.5 153.6875 C33.18042734 155.06766025 35.91760894 156.86748927 39.0703125 159.171875 C40.98629133 160.25031737 40.98629133 160.25031737 42.95703125 159.32421875 C43.63121094 158.88722656 44.30539063 158.45023438 45 158 C46.08474609 157.30583984 46.08474609 157.30583984 47.19140625 156.59765625 C47.97386719 156.09105469 48.75632812 155.58445313 49.5625 155.0625 C59.30543122 149.19378296 68.91129571 147.78610818 79.9375 150.125 C89.83276314 152.81352433 97.09469835 158.66310355 103 167 C108.05874084 176.82506892 109.4310813 186.99604431 106.75390625 197.7421875 C103.31571097 208.03895886 96.85685335 215.28007891 87.66015625 220.73828125 C78.87549185 224.9048695 68.4663346 225.49157915 59.01953125 223.3125 C48.31215699 219.32836074 40.06969168 211.79815029 35.125 201.5625 C31.96993576 193.56360317 31.41932379 183.2920088 34 175 C33.0409375 174.6596875 33.0409375 174.6596875 32.0625 174.3125 C28.56180883 172.81220379 25.42383614 170.91934459 22.18359375 168.92578125 C20.07865418 167.83693224 20.07865418 167.83693224 17.94921875 168.15234375 C15.59866429 169.17452876 14.20550842 170.45843857 12.375 172.25 C5.98257316 178.04722881 -0.75264589 180.64361311 -9 183 C-9.33 189.27 -9.66 195.54 -10 202 C-8.02 202.33 -6.04 202.66 -4 203 C5.28260514 207.0738706 12.53719319 213.85571264 16.4375 223.25 C20.14319107 233.41987863 20.29005249 243.98987752 16 254 C11.16262567 263.30264295 3.66245762 270.82995665 -6.33203125 274.31640625 C-17.67668177 277.22316151 -28.23903378 276.1567593 -38.546875 270.59765625 C-47.5039712 264.76413341 -52.41873886 257.16011586 -55.60546875 247.0859375 C-57.56935542 236.70261591 -56.08718426 226.77271167 -50.64453125 217.75390625 C-45.70025305 210.74177979 -39.19738826 204.87331135 -31 202 C-29.68 202 -28.36 202 -27 202 C-27.33 195.73 -27.66 189.46 -28 183 C-29.794375 182.46375 -31.58875 181.9275 -33.4375 181.375 C-39.3817734 179.3982487 -44.02352668 176.75038569 -49 173 C-49.86625 172.4225 -50.7325 171.845 -51.625 171.25 C-62.32418603 161.11392902 -66.5069044 148.38136383 -67 134 C-66.69578228 121.28080192 -61.06014656 108.75318367 -51.84375 99.9375 C-44.60349056 93.95221886 -37.11430968 90.27857742 -28 88 C-27.67 81.73 -27.34 75.46 -27 69 C-29.97 68.505 -29.97 68.505 -33 68 C-44.4689872 63.30373113 -50.30352739 55.17382241 -55 44 C-58.15860381 34.42847329 -56.28849078 23.8440848 -52 15 C-46.65946395 5.42386639 -38.92762368 -0.45047622 -28.55859375 -3.78515625 C-18.55050438 -6.21087293 -8.96601297 -4.9950934 0 0 Z M-33 24 C-35.69653394 28.49422324 -35.65455349 32.8928666 -35 38 C-32.54105131 42.91789738 -29.30126351 46.53035857 -24.21875 48.79296875 C-19.44099242 50.35711558 -15.78518755 49.99238205 -11.1171875 48.19140625 C-6.59354728 45.64581535 -3.62666858 41.88000575 -2 37 C-1.63173776 31.38400084 -1.78443993 27.82334011 -5 23 C-9.10551945 19.07298139 -12.69437666 16.43495044 -18.375 15.6875 C-24.66272718 16.43603895 -28.95173344 19.25774488 -33 24 Z M56.6875 74.625 C53.36764508 79.29738841 53.40167076 83.37907603 54 89 C55.31453319 92.98866927 57.53889329 95.59251035 60.6875 98.375 C65.50083039 100.73625642 69.95393145 101.91328334 75.21484375 100.3359375 C80.50348482 97.91320807 83.38790794 94.76358639 86.3125 89.75 C87.66173683 84.35305269 86.80303662 79.63695927 84.375 74.6875 C80.87462801 70.72655275 77.735841 68.42490082 72.53515625 67.6171875 C65.37837277 67.29432509 61.47084968 69.19525172 56.6875 74.625 Z M-36.49609375 118.25 C-41.2199505 123.74685149 -43.37441923 130.36495909 -43.28125 137.52734375 C-42.50428174 144.35818967 -38.83333905 150.27650957 -34 155 C-27.89599224 158.80129824 -22.23300138 160.58330656 -15 160 C-6.44073939 157.71569572 -0.99726786 153.4959018 3.875 146.1875 C6.28150151 139.36907906 6.79341156 132.98080697 4.140625 126.16796875 C0.31786488 118.90210619 -5.35764889 114.11588167 -13 111.25 C-22.02569931 110.12178759 -29.77901945 112.01605633 -36.49609375 118.25 Z M56.5625 176.5625 C53.43304972 181.44444244 53.36688895 186.36355301 54 192 C56.49334503 196.98669007 59.99350949 200.49675474 65 203 C71.84422703 203.76325018 76.48535628 203.19112923 82 199 C85.47934871 195.06284224 86.7991262 191.46114681 87.1640625 186.30859375 C86.7888468 181.02877282 84.27484559 177.24215724 80.5625 173.625 C71.85893963 168.10566904 63.68743733 169.07218127 56.5625 176.5625 Z M-28 224 C-31.28479568 227.09913332 -34.72888582 230.52886088 -35.23828125 235.171875 C-35.40686859 241.02806674 -35.03495229 244.43413294 -31 249 C-27.05404238 253.12949053 -23.91981974 254.87390762 -18.3046875 255.1953125 C-12.79518599 254.72840559 -8.64318266 252.04143428 -5.0625 247.9375 C-1.92586736 243.47017472 -1.2904106 239.36134216 -2 234 C-3.77283431 229.22105535 -6.63274551 225.6203527 -11 223 C-17.15060599 220.61988044 -22.33551591 220.35854594 -28 224 Z " fill="#000000" transform="translate(111,49)"/>
<path d="M0 0 C0.495 0.495 0.495 0.495 1 1 C1.33 -1.31 1.66 -3.62 2 -6 C8.93 -6 15.86 -6 23 -6 C23 20.73 23 47.46 23 75 C16.07 75 9.14 75 2 75 C1.505 71.04 1.505 71.04 1 67 C0.52691406 67.47050781 0.05382812 67.94101563 -0.43359375 68.42578125 C-8.37202055 75.89997256 -15.27669351 77.47012968 -26.04907227 77.35180664 C-36.94866193 76.98135134 -45.32083518 73.44715631 -53.19921875 65.890625 C-63.26020218 55.1043581 -65.63976286 43.86152992 -65.30859375 29.484375 C-64.74271169 18.31700963 -59.89654847 8.7102263 -51.8984375 0.96484375 C-36.1364611 -12.15157124 -16.08923609 -12.24101333 0 0 Z M-39 18 C-39.721875 18.804375 -40.44375 19.60875 -41.1875 20.4375 C-45.27340506 26.21412439 -45.67128322 32.12733846 -45 39 C-43.53585888 45.85316476 -39.7923626 51.06481525 -34.2890625 55.32421875 C-28.30484396 58.92232483 -21.77577696 58.81513106 -15 58 C-8.24488836 56.21647217 -4.00508562 51.51811796 0 46 C3.27730487 40.19023227 3.60015611 33.31849061 2 26.9375 C-0.16908339 20.68314745 -3.60618302 15.98580366 -9.36328125 12.6171875 C-20.17379436 7.80877887 -31.07092317 8.74941037 -39 18 Z " fill="#000000" transform="translate(635,164)"/>
<path d="M0 0 C1.89681174 1.65509413 3.68116962 3.33301164 5.39453125 5.17578125 C5.72453125 2.53578125 6.05453125 -0.10421875 6.39453125 -2.82421875 C12.99453125 -2.82421875 19.59453125 -2.82421875 26.39453125 -2.82421875 C26.39453125 23.90578125 26.39453125 50.63578125 26.39453125 78.17578125 C19.79453125 78.17578125 13.19453125 78.17578125 6.39453125 78.17578125 C5.89953125 74.21578125 5.89953125 74.21578125 5.39453125 70.17578125 C4.46640625 71.08328125 3.53828125 71.99078125 2.58203125 72.92578125 C-5.40157942 79.63710337 -14.50391209 81.00365212 -24.6640625 80.55859375 C-35.82248161 79.47482262 -44.22936598 75.06383487 -51.79296875 66.92578125 C-60.34905148 56.34141733 -62.58751388 44.4879486 -61.60546875 31.17578125 C-59.81126458 19.02344037 -54.2588294 8.87446497 -44.60546875 1.17578125 C-31.37594029 -7.22358011 -13.42964878 -9.40276758 0 0 Z M-37.16015625 22.98046875 C-41.22397609 29.15308159 -42.26411552 35.09144457 -41.30078125 42.3984375 C-39.62092287 49.1084336 -36.26252813 54.47490261 -30.41796875 58.23828125 C-23.62639422 62.00244781 -15.70253435 62.4664898 -8.18359375 60.5625 C-1.46983063 57.60896467 2.47647727 51.77518321 5.26953125 45.17578125 C7.54916976 38.15940884 6.75024853 32.31102963 3.859375 25.64453125 C0.67723324 20.28156168 -4.03476253 16.4884823 -9.54296875 13.67578125 C-20.88668538 11.82374588 -29.7831617 13.68202446 -37.16015625 22.98046875 Z " fill="#000000" transform="translate(405.60546875,160.82421875)"/>
<path d="M0 0 C6.6 0 13.2 0 20 0 C20.33 18.48 20.66 36.96 21 56 C28.42658394 47.92139271 28.42658394 47.92139271 35.75 39.75 C36.30389404 39.1302832 36.85778809 38.51056641 37.4284668 37.87207031 C39.04458705 36.01775754 39.04458705 36.01775754 40.39379883 33.90136719 C42.86718087 30.43291864 44.64929148 28.29975435 48.90869141 27.35449219 C52.28442397 27.21322263 55.56500133 27.30060269 58.9375 27.5 C60.09830078 27.53609375 61.25910156 27.5721875 62.45507812 27.609375 C65.30682388 27.70325963 68.15166795 27.83441781 71 28 C63.61784755 36.68950887 55.98998839 45.11315192 47.859375 53.109375 C44.75141991 56.26956463 41.87172866 59.62571882 39 63 C41.98762327 68.57348792 45.49414348 73.3804429 49.4375 78.3125 C54.52380722 84.76443107 59.49149342 91.28463295 64.3125 97.9375 C64.86929443 98.7003833 65.42608887 99.4632666 65.99975586 100.24926758 C66.51159424 100.95978271 67.02343262 101.67029785 67.55078125 102.40234375 C68.22620972 103.33808228 68.22620972 103.33808228 68.9152832 104.29272461 C70 106 70 106 71 109 C52.0143268 111.50954501 52.0143268 111.50954501 45.92626953 107.70361328 C42.27932632 104.13192943 39.82387703 99.79416069 37.36230469 95.35791016 C35.01084751 91.28795077 32.19350426 87.5518853 29.4375 83.75 C28.03725492 81.75700624 26.64405725 79.75925502 25.25170898 77.76074219 C23.86888621 75.81556609 22.4319662 73.90928826 21 72 C20.67 84.21 20.34 96.42 20 109 C13.4 109 6.8 109 0 109 C0 73.03 0 37.06 0 0 Z " fill="#000000" transform="translate(497,130)"/>
<path d="M0 0 C6.6 0 13.2 0 20 0 C20.33 18.15 20.66 36.3 21 55 C32.77323218 43.44542171 32.77323218 43.44542171 43.22314453 29.92358398 C45 28 45 28 47.63549805 27.54589844 C49.18297729 27.57731934 49.18297729 27.57731934 50.76171875 27.609375 C51.87998047 27.62226563 52.99824219 27.63515625 54.15039062 27.6484375 C55.31763672 27.68195313 56.48488281 27.71546875 57.6875 27.75 C58.86634766 27.76804688 60.04519531 27.78609375 61.25976562 27.8046875 C64.17398926 27.85188141 67.08659031 27.91770923 70 28 C66.22332396 33.29023266 62.24316948 37.99670765 57.5625 42.5 C52.81174931 47.16007469 48.28239621 51.90142945 44 57 C42.00279197 59.33572871 40.00150486 61.6679528 38 64 C38.41137207 64.53665283 38.82274414 65.07330566 39.24658203 65.6262207 C46.8424688 75.54383333 54.41492637 85.47967026 61.875 95.5 C62.46297363 96.28157471 63.05094727 97.06314941 63.65673828 97.8684082 C66.31207648 101.45409822 68.64817686 104.68785529 70 109 C51.06156111 111.83967365 51.06156111 111.83967365 44.79589844 107.45898438 C40.86376194 103.29845062 38.0999614 98.41174906 35.36572266 93.41210938 C33.30848576 89.77866274 30.85686975 86.47572897 28.375 83.125 C27.58903995 82.02493905 26.80503074 80.92348035 26.0234375 79.8203125 C24.37748048 77.52614075 22.69412617 75.25883489 21 73 C20.67 84.88 20.34 96.76 20 109 C13.4 109 6.8 109 0 109 C0 73.03 0 37.06 0 0 Z " fill="#000000" transform="translate(272,130)"/>
<path d="M0 0 C0 5.28 0 10.56 0 16 C-3.41796875 16.63476562 -3.41796875 16.63476562 -6.8359375 17.26953125 C-9.35820641 17.87544942 -9.35820641 17.87544942 -11 21 C-11.45394552 23.27912938 -11.45394552 23.27912938 -11.625 25.6875 C-11.74875 27.110625 -11.8725 28.53375 -12 30 C-8.04 30 -4.08 30 0 30 C0 34.95 0 39.9 0 45 C-3.96 45 -7.92 45 -12 45 C-12 66.78 -12 88.56 -12 111 C-18.93 111 -25.86 111 -33 111 C-33 89.22 -33 67.44 -33 45 C-35.97 45 -38.94 45 -42 45 C-42 40.05 -42 35.1 -42 30 C-39.03 30 -36.06 30 -33 30 C-32.97421875 29.0821875 -32.9484375 28.164375 -32.921875 27.21875 C-32.5210563 18.5464908 -31.97496826 11.97496826 -25.6875 5.6875 C-17.13236159 0.31566891 -9.81226648 -0.11822008 0 0 Z " fill="#000000" transform="translate(485,128)"/>
</svg>
