<?xml version="1.0" encoding="UTF-8"?>
<svg version="1.1" xmlns="http://www.w3.org/2000/svg" width="492" height="308">
<path d="M0 0 C162.36 0 324.72 0 492 0 C492 101.64 492 203.28 492 308 C329.64 308 167.28 308 0 308 C0 206.36 0 104.72 0 0 Z " fill="#FEFEFE" transform="translate(0,0)"/>
<path d="M0 0 C3.3 0 6.6 0 10 0 C10 0.66 10 1.32 10 2 C10.66 2 11.32 2 12 2 C12 2.66 12 3.32 12 4 C12.66 4 13.32 4 14 4 C14 4.66 14 5.32 14 6 C14.66 6 15.32 6 16 6 C16 7.32 16 8.64 16 10 C16.66 10 17.32 10 18 10 C18 12.64 18 15.28 18 18 C19.98 18 21.96 18 24 18 C24 17.34 24 16.68 24 16 C28.62 16 33.24 16 38 16 C38 16.66 38 17.32 38 18 C40.64 18 43.28 18 46 18 C46 15.36 46 12.72 46 10 C46.66 10 47.32 10 48 10 C48 8.68 48 7.36 48 6 C48.66 6 49.32 6 50 6 C50 5.34 50 4.68 50 4 C50.66 4 51.32 4 52 4 C52 3.34 52 2.68 52 2 C52.66 2 53.32 2 54 2 C54 1.34 54 0.68 54 0 C57.3 0 60.6 0 64 0 C64 0.66 64 1.32 64 2 C64.66 2 65.32 2 66 2 C66 3.98 66 5.96 66 8 C66.66 8 67.32 8 68 8 C68 8.66 68 9.32 68 10 C68.66 10 69.32 10 70 10 C70 17.92 70 25.84 70 34 C70.66 34 71.32 34 72 34 C72 34.66 72 35.32 72 36 C72.66 36 73.32 36 74 36 C74 36.66 74 37.32 74 38 C74.66 38 75.32 38 76 38 C76 39.32 76 40.64 76 42 C76.66 42 77.32 42 78 42 C78 43.98 78 45.96 78 48 C78.66 48 79.32 48 80 48 C80 53.28 80 58.56 80 64 C79.34 64 78.68 64 78 64 C78 65.32 78 66.64 78 68 C77.34 68 76.68 68 76 68 C76 69.98 76 71.96 76 74 C76.66 74 77.32 74 78 74 C78 74.66 78 75.32 78 76 C78.66 76 79.32 76 80 76 C80 83.26 80 90.52 80 98 C79.34 98 78.68 98 78 98 C78 98.66 78 99.32 78 100 C77.34 100 76.68 100 76 100 C76 104.62 76 109.24 76 114 C74.02 114 72.04 114 70 114 C70 112.68 70 111.36 70 110 C69.34 110 68.68 110 68 110 C68 106.7 68 103.4 68 100 C68.66 100 69.32 100 70 100 C70 98.68 70 97.36 70 96 C70.66 96 71.32 96 72 96 C72 89.4 72 82.8 72 76 C71.34 76 70.68 76 70 76 C70 75.34 70 74.68 70 74 C69.34 74 68.68 74 68 74 C68 72.02 68 70.04 68 68 C68.66 68 69.32 68 70 68 C70 66.68 70 65.36 70 64 C70.66 64 71.32 64 72 64 C72 58.06 72 52.12 72 46 C71.34 46 70.68 46 70 46 C70 45.34 70 44.68 70 44 C69.34 44 68.68 44 68 44 C68 43.34 68 42.68 68 42 C67.34 42 66.68 42 66 42 C66 41.34 66 40.68 66 40 C65.34 40 64.68 40 64 40 C64 39.34 64 38.68 64 38 C62.68 38 61.36 38 60 38 C60 37.34 60 36.68 60 36 C56.7 36 53.4 36 50 36 C50 35.34 50 34.68 50 34 C49.34 34 48.68 34 48 34 C48 32.68 48 31.36 48 30 C47.34 30 46.68 30 46 30 C46 29.34 46 28.68 46 28 C44.68 28 43.36 28 42 28 C42 27.34 42 26.68 42 26 C41.34 26 40.68 26 40 26 C40 25.34 40 24.68 40 24 C34.72 24 29.44 24 24 24 C24 24.66 24 25.32 24 26 C23.34 26 22.68 26 22 26 C22 26.66 22 27.32 22 28 C20.68 28 19.36 28 18 28 C18 29.32 18 30.64 18 32 C17.34 32 16.68 32 16 32 C16 32.66 16 33.32 16 34 C15.34 34 14.68 34 14 34 C14 34.66 14 35.32 14 36 C10.7 36 7.4 36 4 36 C4 36.66 4 37.32 4 38 C2.68 38 1.36 38 0 38 C0 38.66 0 39.32 0 40 C-0.66 40 -1.32 40 -2 40 C-2 40.66 -2 41.32 -2 42 C-2.66 42 -3.32 42 -4 42 C-4 42.66 -4 43.32 -4 44 C-4.66 44 -5.32 44 -6 44 C-6 44.66 -6 45.32 -6 46 C-6.66 46 -7.32 46 -8 46 C-8 47.32 -8 48.64 -8 50 C-8.66 50 -9.32 50 -10 50 C-10 53.3 -10 56.6 -10 60 C-9.34 60 -8.68 60 -8 60 C-8 61.32 -8 62.64 -8 64 C-7.34 64 -6.68 64 -6 64 C-6 65.32 -6 66.64 -6 68 C-5.34 68 -4.68 68 -4 68 C-4 69.98 -4 71.96 -4 74 C-4.66 74 -5.32 74 -6 74 C-6 74.66 -6 75.32 -6 76 C-6.66 76 -7.32 76 -8 76 C-8 82.6 -8 89.2 -8 96 C-7.34 96 -6.68 96 -6 96 C-6 97.32 -6 98.64 -6 100 C-5.34 100 -4.68 100 -4 100 C-4 102.64 -4 105.28 -4 108 C-4.66 108 -5.32 108 -6 108 C-6 110.64 -6 113.28 -6 116 C-6.66 116 -7.32 116 -8 116 C-8 115.34 -8 114.68 -8 114 C-9.32 114 -10.64 114 -12 114 C-12 110.04 -12 106.08 -12 102 C-12.66 102 -13.32 102 -14 102 C-14 101.34 -14 100.68 -14 100 C-14.66 100 -15.32 100 -16 100 C-16 92.08 -16 84.16 -16 76 C-15.34 76 -14.68 76 -14 76 C-14 75.34 -14 74.68 -14 74 C-13.34 74 -12.68 74 -12 74 C-12 72.02 -12 70.04 -12 68 C-12.66 68 -13.32 68 -14 68 C-14 66.68 -14 65.36 -14 64 C-14.66 64 -15.32 64 -16 64 C-16 58.72 -16 53.44 -16 48 C-15.34 48 -14.68 48 -14 48 C-14 46.02 -14 44.04 -14 42 C-13.34 42 -12.68 42 -12 42 C-12 40.68 -12 39.36 -12 38 C-11.34 38 -10.68 38 -10 38 C-10 37.34 -10 36.68 -10 36 C-9.34 36 -8.68 36 -8 36 C-8 35.34 -8 34.68 -8 34 C-7.34 34 -6.68 34 -6 34 C-6 26.08 -6 18.16 -6 10 C-5.34 10 -4.68 10 -4 10 C-4 9.34 -4 8.68 -4 8 C-3.34 8 -2.68 8 -2 8 C-2 6.02 -2 4.04 -2 2 C-1.34 2 -0.68 2 0 2 C0 1.34 0 0.68 0 0 Z " fill="#1A1A1A" transform="translate(206,27)"/>
<path d="M0 0 C4.62 0 9.24 0 14 0 C14 1.98 14 3.96 14 6 C15.32 6 16.64 6 18 6 C18 5.34 18 4.68 18 4 C18.66 4 19.32 4 20 4 C20 3.34 20 2.68 20 2 C20.66 2 21.32 2 22 2 C22 1.34 22 0.68 22 0 C27.28 0 32.56 0 38 0 C38 0.66 38 1.32 38 2 C38.66 2 39.32 2 40 2 C40 2.66 40 3.32 40 4 C40.66 4 41.32 4 42 4 C42 4.66 42 5.32 42 6 C43.98 6 45.96 6 48 6 C48 5.34 48 4.68 48 4 C48.66 4 49.32 4 50 4 C50 3.34 50 2.68 50 2 C50.66 2 51.32 2 52 2 C52 1.34 52 0.68 52 0 C57.28 0 62.56 0 68 0 C68 0.66 68 1.32 68 2 C69.32 2 70.64 2 72 2 C72 3.32 72 4.64 72 6 C72.66 6 73.32 6 74 6 C74 6.66 74 7.32 74 8 C74.66 8 75.32 8 76 8 C76 22.52 76 37.04 76 52 C71.38 52 66.76 52 62 52 C62 40.12 62 28.24 62 16 C61.34 16 60.68 16 60 16 C60 15.34 60 14.68 60 14 C59.34 14 58.68 14 58 14 C58 13.34 58 12.68 58 12 C56.02 12 54.04 12 52 12 C52 12.66 52 13.32 52 14 C51.34 14 50.68 14 50 14 C50 14.66 50 15.32 50 16 C49.34 16 48.68 16 48 16 C48 16.66 48 17.32 48 18 C47.34 18 46.68 18 46 18 C46 29.22 46 40.44 46 52 C40.72 52 35.44 52 30 52 C30 39.46 30 26.92 30 14 C29.34 14 28.68 14 28 14 C28 13.34 28 12.68 28 12 C26.02 12 24.04 12 22 12 C22 12.66 22 13.32 22 14 C21.34 14 20.68 14 20 14 C20 14.66 20 15.32 20 16 C18.68 16 17.36 16 16 16 C16 28.54 16 41.08 16 54 C10.72 54 5.44 54 0 54 C0 36.18 0 18.36 0 0 Z " fill="#060606" transform="translate(258,219)"/>
<path d="M0 0 C6.6 0 13.2 0 20 0 C20 0.66 20 1.32 20 2 C21.32 2 22.64 2 24 2 C24 2.66 24 3.32 24 4 C25.32 4 26.64 4 28 4 C28 4.66 28 5.32 28 6 C28.66 6 29.32 6 30 6 C30 6.66 30 7.32 30 8 C30.66 8 31.32 8 32 8 C32 9.32 32 10.64 32 12 C32.66 12 33.32 12 34 12 C34 12.66 34 13.32 34 14 C34.66 14 35.32 14 36 14 C36 21.92 36 29.84 36 38 C35.34 38 34.68 38 34 38 C34 39.32 34 40.64 34 42 C33.34 42 32.68 42 32 42 C32 42.66 32 43.32 32 44 C31.34 44 30.68 44 30 44 C30 45.32 30 46.64 30 48 C28.68 48 27.36 48 26 48 C26 48.66 26 49.32 26 50 C25.34 50 24.68 50 24 50 C24 50.66 24 51.32 24 52 C22.02 52 20.04 52 18 52 C18 52.66 18 53.32 18 54 C12.72 54 7.44 54 2 54 C2 53.34 2 52.68 2 52 C0.68 52 -0.64 52 -2 52 C-2 51.34 -2 50.68 -2 50 C-2.66 50 -3.32 50 -4 50 C-4 49.34 -4 48.68 -4 48 C-4.66 48 -5.32 48 -6 48 C-6 47.34 -6 46.68 -6 46 C-6.66 46 -7.32 46 -8 46 C-8 45.34 -8 44.68 -8 44 C-8.66 44 -9.32 44 -10 44 C-10 42.68 -10 41.36 -10 40 C-10.66 40 -11.32 40 -12 40 C-12 38.02 -12 36.04 -12 34 C-12.66 34 -13.32 34 -14 34 C-14 29.38 -14 24.76 -14 20 C-13.34 20 -12.68 20 -12 20 C-12 18.02 -12 16.04 -12 14 C-11.34 14 -10.68 14 -10 14 C-10 12.68 -10 11.36 -10 10 C-9.34 10 -8.68 10 -8 10 C-8 9.34 -8 8.68 -8 8 C-7.34 8 -6.68 8 -6 8 C-6 7.34 -6 6.68 -6 6 C-5.34 6 -4.68 6 -4 6 C-4 5.34 -4 4.68 -4 4 C-3.34 4 -2.68 4 -2 4 C-2 3.34 -2 2.68 -2 2 C-1.34 2 -0.68 2 0 2 C0 1.34 0 0.68 0 0 Z " fill="#0B0B0B" transform="translate(98,219)"/>
<path d="M0 0 C5.94 0 11.88 0 18 0 C18 0.66 18 1.32 18 2 C19.32 2 20.64 2 22 2 C22 2.66 22 3.32 22 4 C22.66 4 23.32 4 24 4 C24 4.66 24 5.32 24 6 C24.66 6 25.32 6 26 6 C26 7.32 26 8.64 26 10 C26.66 10 27.32 10 28 10 C28 10.66 28 11.32 28 12 C28.66 12 29.32 12 30 12 C30 25.86 30 39.72 30 54 C25.38 54 20.76 54 16 54 C16 52.02 16 50.04 16 48 C15.34 48 14.68 48 14 48 C14 48.66 14 49.32 14 50 C13.34 50 12.68 50 12 50 C12 50.66 12 51.32 12 52 C10.68 52 9.36 52 8 52 C8 52.66 8 53.32 8 54 C4.04 54 0.08 54 -4 54 C-4 53.34 -4 52.68 -4 52 C-5.98 52 -7.96 52 -10 52 C-10 51.34 -10 50.68 -10 50 C-10.66 50 -11.32 50 -12 50 C-12 48.68 -12 47.36 -12 46 C-12.66 46 -13.32 46 -14 46 C-14 41.38 -14 36.76 -14 32 C-13.34 32 -12.68 32 -12 32 C-12 30.68 -12 29.36 -12 28 C-11.34 28 -10.68 28 -10 28 C-10 27.34 -10 26.68 -10 26 C-9.34 26 -8.68 26 -8 26 C-8 25.34 -8 24.68 -8 24 C-6.68 24 -5.36 24 -4 24 C-4 23.34 -4 22.68 -4 22 C-2.68 22 -1.36 22 0 22 C0 21.34 0 20.68 0 20 C4.62 20 9.24 20 14 20 C14 18.68 14 17.36 14 16 C13.34 16 12.68 16 12 16 C12 14.68 12 13.36 12 12 C8.04 12 4.08 12 0 12 C0 12.66 0 13.32 0 14 C-1.32 14 -2.64 14 -4 14 C-4 14.66 -4 15.32 -4 16 C-5.32 16 -6.64 16 -8 16 C-8 15.34 -8 14.68 -8 14 C-8.66 14 -9.32 14 -10 14 C-10 12.68 -10 11.36 -10 10 C-10.66 10 -11.32 10 -12 10 C-12 8.68 -12 7.36 -12 6 C-11.34 6 -10.68 6 -10 6 C-10 5.34 -10 4.68 -10 4 C-9.34 4 -8.68 4 -8 4 C-8 3.34 -8 2.68 -8 2 C-5.36 2 -2.72 2 0 2 C0 1.34 0 0.68 0 0 Z " fill="#090909" transform="translate(360,219)"/>
<path d="M0 0 C5.94 0 11.88 0 18 0 C18 0.66 18 1.32 18 2 C19.32 2 20.64 2 22 2 C22 2.66 22 3.32 22 4 C22.66 4 23.32 4 24 4 C24 4.66 24 5.32 24 6 C24.66 6 25.32 6 26 6 C26 6.66 26 7.32 26 8 C26.66 8 27.32 8 28 8 C28 9.32 28 10.64 28 12 C28.66 12 29.32 12 30 12 C30 25.86 30 39.72 30 54 C26.04 54 22.08 54 18 54 C18 53.34 18 52.68 18 52 C17.34 52 16.68 52 16 52 C16 50.68 16 49.36 16 48 C15.34 48 14.68 48 14 48 C14 48.66 14 49.32 14 50 C13.34 50 12.68 50 12 50 C12 50.66 12 51.32 12 52 C10.68 52 9.36 52 8 52 C8 52.66 8 53.32 8 54 C3.38 54 -1.24 54 -6 54 C-6 53.34 -6 52.68 -6 52 C-6.66 52 -7.32 52 -8 52 C-8 51.34 -8 50.68 -8 50 C-8.66 50 -9.32 50 -10 50 C-10 49.34 -10 48.68 -10 48 C-10.66 48 -11.32 48 -12 48 C-12 47.34 -12 46.68 -12 46 C-12.66 46 -13.32 46 -14 46 C-14 41.38 -14 36.76 -14 32 C-13.34 32 -12.68 32 -12 32 C-12 30.68 -12 29.36 -12 28 C-11.34 28 -10.68 28 -10 28 C-10 27.34 -10 26.68 -10 26 C-8.68 26 -7.36 26 -6 26 C-6 25.34 -6 24.68 -6 24 C-5.34 24 -4.68 24 -4 24 C-4 23.34 -4 22.68 -4 22 C-1.36 22 1.28 22 4 22 C4 21.34 4 20.68 4 20 C7.3 20 10.6 20 14 20 C14 18.02 14 16.04 14 14 C13.34 14 12.68 14 12 14 C12 13.34 12 12.68 12 12 C8.04 12 4.08 12 0 12 C0 12.66 0 13.32 0 14 C-1.32 14 -2.64 14 -4 14 C-4 14.66 -4 15.32 -4 16 C-5.32 16 -6.64 16 -8 16 C-8 15.34 -8 14.68 -8 14 C-8.66 14 -9.32 14 -10 14 C-10 12.68 -10 11.36 -10 10 C-10.66 10 -11.32 10 -12 10 C-12 8.68 -12 7.36 -12 6 C-11.34 6 -10.68 6 -10 6 C-10 5.34 -10 4.68 -10 4 C-8.68 4 -7.36 4 -6 4 C-6 3.34 -6 2.68 -6 2 C-4.02 2 -2.04 2 0 2 C0 1.34 0 0.68 0 0 Z " fill="#070707" transform="translate(216,219)"/>
<path d="M0 0 C5.28 0 10.56 0 16 0 C16 20.46 16 40.92 16 62 C17.98 62 19.96 62 22 62 C22 65.96 22 69.92 22 74 C18.04 74 14.08 74 10 74 C10 73.34 10 72.68 10 72 C8.02 72 6.04 72 4 72 C4 70.68 4 69.36 4 68 C3.34 68 2.68 68 2 68 C2 66.02 2 64.04 2 62 C1.34 62 0.68 62 0 62 C0 41.54 0 21.08 0 0 Z " fill="#0B0B0B" transform="translate(144,199)"/>
<path d="M0 0 C5.28 0 10.56 0 16 0 C16 20.46 16 40.92 16 62 C17.32 62 18.64 62 20 62 C20 63.32 20 64.64 20 66 C20.66 66 21.32 66 22 66 C22 68.64 22 71.28 22 74 C18.04 74 14.08 74 10 74 C10 73.34 10 72.68 10 72 C8.02 72 6.04 72 4 72 C4 70.68 4 69.36 4 68 C3.34 68 2.68 68 2 68 C2 66.68 2 65.36 2 64 C1.34 64 0.68 64 0 64 C0 42.88 0 21.76 0 0 Z " fill="#0F0F0F" transform="translate(174,199)"/>
<path d="M0 0 C3.3 0 6.6 0 10 0 C10 0.66 10 1.32 10 2 C11.32 2 12.64 2 14 2 C14 2.66 14 3.32 14 4 C15.98 4 17.96 4 20 4 C20 4.66 20 5.32 20 6 C20.66 6 21.32 6 22 6 C22 6.66 22 7.32 22 8 C22.66 8 23.32 8 24 8 C24 9.32 24 10.64 24 12 C24.66 12 25.32 12 26 12 C26 15.3 26 18.6 26 22 C25.34 22 24.68 22 24 22 C24 22.66 24 23.32 24 24 C23.34 24 22.68 24 22 24 C22 25.32 22 26.64 22 28 C21.34 28 20.68 28 20 28 C20 28.66 20 29.32 20 30 C18.68 30 17.36 30 16 30 C16 30.66 16 31.32 16 32 C8.74 32 1.48 32 -6 32 C-6 31.34 -6 30.68 -6 30 C-6.66 30 -7.32 30 -8 30 C-8 29.34 -8 28.68 -8 28 C-8.66 28 -9.32 28 -10 28 C-10 26.68 -10 25.36 -10 24 C-10.66 24 -11.32 24 -12 24 C-12 23.34 -12 22.68 -12 22 C-12.66 22 -13.32 22 -14 22 C-14 18.7 -14 15.4 -14 12 C-13.34 12 -12.68 12 -12 12 C-12 11.34 -12 10.68 -12 10 C-11.34 10 -10.68 10 -10 10 C-10 8.68 -10 7.36 -10 6 C-9.34 6 -8.68 6 -8 6 C-8 5.34 -8 4.68 -8 4 C-7.34 4 -6.68 4 -6 4 C-6 3.34 -6 2.68 -6 2 C-4.02 2 -2.04 2 0 2 C0 1.34 0 0.68 0 0 Z " fill="#2B2B2B" transform="translate(232,71)"/>
<path d="M0 0 C5.28 0 10.56 0 16 0 C16 0.66 16 1.32 16 2 C16.66 2 17.32 2 18 2 C18 2.66 18 3.32 18 4 C18.66 4 19.32 4 20 4 C20 4.66 20 5.32 20 6 C20.66 6 21.32 6 22 6 C22 9.96 22 13.92 22 18 C20.68 18 19.36 18 18 18 C18 18.66 18 19.32 18 20 C11.4 20 4.8 20 -2 20 C-2 19.34 -2 18.68 -2 18 C-2.66 18 -3.32 18 -4 18 C-4 17.34 -4 16.68 -4 16 C-4.66 16 -5.32 16 -6 16 C-6 12.7 -6 9.4 -6 6 C-5.34 6 -4.68 6 -4 6 C-4 5.34 -4 4.68 -4 4 C-3.34 4 -2.68 4 -2 4 C-2 3.34 -2 2.68 -2 2 C-1.34 2 -0.68 2 0 2 C0 1.34 0 0.68 0 0 Z " fill="#EAEAEA" transform="translate(230,77)"/>
<path d="M0 0 C2.64 0 5.28 0 8 0 C8 0.66 8 1.32 8 2 C8.66 2 9.32 2 10 2 C10 2.66 10 3.32 10 4 C10.66 4 11.32 4 12 4 C12 11.26 12 18.52 12 26 C11.34 26 10.68 26 10 26 C10 26.66 10 27.32 10 28 C9.34 28 8.68 28 8 28 C8 28.66 8 29.32 8 30 C5.36 30 2.72 30 0 30 C0 29.34 0 28.68 0 28 C-0.66 28 -1.32 28 -2 28 C-2 27.34 -2 26.68 -2 26 C-2.66 26 -3.32 26 -4 26 C-4 25.34 -4 24.68 -4 24 C-4.66 24 -5.32 24 -6 24 C-6 18.72 -6 13.44 -6 8 C-5.34 8 -4.68 8 -4 8 C-4 6.68 -4 5.36 -4 4 C-3.34 4 -2.68 4 -2 4 C-2 3.34 -2 2.68 -2 2 C-1.34 2 -0.68 2 0 2 C0 1.34 0 0.68 0 0 Z " fill="#EFEFEF" transform="translate(106,231)"/>
<path d="M0 0 C2.64 0 5.28 0 8 0 C8 0.66 8 1.32 8 2 C11.96 2 15.92 2 20 2 C20 1.34 20 0.68 20 0 C22.64 0 25.28 0 28 0 C28 5.28 28 10.56 28 16 C25.36 16 22.72 16 20 16 C20 15.34 20 14.68 20 14 C19.34 14 18.68 14 18 14 C18 13.34 18 12.68 18 12 C17.34 12 16.68 12 16 12 C16 11.34 16 10.68 16 10 C14.68 10 13.36 10 12 10 C12 10.66 12 11.32 12 12 C11.34 12 10.68 12 10 12 C10 12.66 10 13.32 10 14 C9.34 14 8.68 14 8 14 C8 14.66 8 15.32 8 16 C6.02 16 4.04 16 2 16 C2 14.68 2 13.36 2 12 C1.34 12 0.68 12 0 12 C0 8.04 0 4.08 0 0 Z " fill="#212121" transform="translate(224,107)"/>
<path d="M0 0 C4.62 0 9.24 0 14 0 C14 1.98 14 3.96 14 6 C13.34 6 12.68 6 12 6 C12 4.68 12 3.36 12 2 C8.7 2 5.4 2 2 2 C2 18.5 2 35 2 52 C6.62 52 11.24 52 16 52 C16 52.66 16 53.32 16 54 C10.72 54 5.44 54 0 54 C0 36.18 0 18.36 0 0 Z " fill="#838383" transform="translate(258,219)"/>
<path d="M0 0 C1.32 0 2.64 0 4 0 C4 0.66 4 1.32 4 2 C4.66 2 5.32 2 6 2 C6 2.66 6 3.32 6 4 C11.94 4 17.88 4 24 4 C24 4.66 24 5.32 24 6 C25.98 6 27.96 6 30 6 C30 6.66 30 7.32 30 8 C28.68 8 27.36 8 26 8 C26 8.66 26 9.32 26 10 C18.74 10 11.48 10 4 10 C4 9.34 4 8.68 4 8 C3.34 8 2.68 8 2 8 C2 7.34 2 6.68 2 6 C1.34 6 0.68 6 0 6 C0 4.02 0 2.04 0 0 Z " fill="#2C2C2C" transform="translate(222,93)"/>
<path d="M0 0 C3.3 0 6.6 0 10 0 C10 3.3 10 6.6 10 10 C9.34 10 8.68 10 8 10 C8 10.66 8 11.32 8 12 C4.7 12 1.4 12 -2 12 C-2 11.34 -2 10.68 -2 10 C-2.66 10 -3.32 10 -4 10 C-4 8.02 -4 6.04 -4 4 C-3.34 4 -2.68 4 -2 4 C-2 3.34 -2 2.68 -2 2 C-1.34 2 -0.68 2 0 2 C0 1.34 0 0.68 0 0 Z " fill="#E6E6E6" transform="translate(220,249)"/>
<path d="M0 0 C1.32 0 2.64 0 4 0 C4 1.32 4 2.64 4 4 C4.66 4 5.32 4 6 4 C6 9.28 6 14.56 6 20 C3.36 20 0.72 20 -2 20 C-2 14.06 -2 8.12 -2 2 C-1.34 2 -0.68 2 0 2 C0 1.34 0 0.68 0 0 Z " fill="#EDEDED" transform="translate(262,35)"/>
<path d="M0 0 C1.32 0 2.64 0 4 0 C4 0.66 4 1.32 4 2 C4.66 2 5.32 2 6 2 C6 7.94 6 13.88 6 20 C3.36 20 0.72 20 -2 20 C-2 14.72 -2 9.44 -2 4 C-1.34 4 -0.68 4 0 4 C0 2.68 0 1.36 0 0 Z " fill="#F7F7F7" transform="translate(210,35)"/>
<path d="M0 0 C2.64 0 5.28 0 8 0 C8 2.64 8 5.28 8 8 C8.66 8 9.32 8 10 8 C10 7.34 10 6.68 10 6 C11.32 6 12.64 6 14 6 C14 7.32 14 8.64 14 10 C13.34 10 12.68 10 12 10 C12 10.66 12 11.32 12 12 C6.72 12 1.44 12 -4 12 C-4 11.34 -4 10.68 -4 10 C-4.66 10 -5.32 10 -6 10 C-6 8.68 -6 7.36 -6 6 C-4.68 6 -3.36 6 -2 6 C-2 6.66 -2 7.32 -2 8 C-0.68 8 0.64 8 2 8 C2 6.68 2 5.36 2 4 C1.34 4 0.68 4 0 4 C0 2.68 0 1.36 0 0 Z " fill="#2C2C2C" transform="translate(234,79)"/>
<path d="M0 0 C2.64 0 5.28 0 8 0 C8 2.64 8 5.28 8 8 C7.34 8 6.68 8 6 8 C6 8.66 6 9.32 6 10 C5.34 10 4.68 10 4 10 C4 10.66 4 11.32 4 12 C1.36 12 -1.28 12 -4 12 C-4 11.34 -4 10.68 -4 10 C-4.66 10 -5.32 10 -6 10 C-6 8.02 -6 6.04 -6 4 C-5.34 4 -4.68 4 -4 4 C-4 3.34 -4 2.68 -4 2 C-2.68 2 -1.36 2 0 2 C0 1.34 0 0.68 0 0 Z " fill="#F1F1F1" transform="translate(366,249)"/>
<path d="M0 0 C0.66 0 1.32 0 2 0 C2 19.8 2 39.6 2 60 C2.66 60 3.32 60 4 60 C4 60.66 4 61.32 4 62 C2.68 62 1.36 62 0 62 C0 41.54 0 21.08 0 0 Z " fill="#DEDEDE" transform="translate(190,199)"/>
<path d="M0 0 C0.66 0 1.32 0 2 0 C2 13.86 2 27.72 2 42 C-2.62 42 -7.24 42 -12 42 C-12 41.34 -12 40.68 -12 40 C-8.04 40 -4.08 40 0 40 C0 26.8 0 13.6 0 0 Z " fill="#616161" transform="translate(388,231)"/>
<path d="M0 0 C0.66 0 1.32 0 2 0 C2 13.86 2 27.72 2 42 C-1.96 42 -5.92 42 -10 42 C-10 41.34 -10 40.68 -10 40 C-6.7 40 -3.4 40 0 40 C0 26.8 0 13.6 0 0 Z " fill="#5A5A5A" transform="translate(244,231)"/>
<path d="M0 0 C1.32 0 2.64 0 4 0 C4 3.3 4 6.6 4 10 C3.34 10 2.68 10 2 10 C2 10.66 2 11.32 2 12 C1.34 12 0.68 12 0 12 C0 13.32 0 14.64 0 16 C-2.64 16 -5.28 16 -8 16 C-8 15.34 -8 14.68 -8 14 C-7.34 14 -6.68 14 -6 14 C-6 13.34 -6 12.68 -6 12 C-4.68 12 -3.36 12 -2 12 C-2 10.68 -2 9.36 -2 8 C-1.34 8 -0.68 8 0 8 C0 5.36 0 2.72 0 0 Z " fill="#262626" transform="translate(254,83)"/>
<path d="M0 0 C5.28 0 10.56 0 16 0 C16 0.66 16 1.32 16 2 C15.34 2 14.68 2 14 2 C14 3.32 14 4.64 14 6 C13.34 6 12.68 6 12 6 C12 4.68 12 3.36 12 2 C9.36 2 6.72 2 4 2 C4 3.32 4 4.64 4 6 C4.66 6 5.32 6 6 6 C6 7.32 6 8.64 6 10 C4.68 10 3.36 10 2 10 C2 9.34 2 8.68 2 8 C0.68 8 -0.64 8 -2 8 C-2 7.34 -2 6.68 -2 6 C-0.68 6 0.64 6 2 6 C2 5.34 2 4.68 2 4 C0.68 4 -0.64 4 -2 4 C-2 3.34 -2 2.68 -2 2 C-1.34 2 -0.68 2 0 2 C0 1.34 0 0.68 0 0 Z " fill="#9A9A9A" transform="translate(230,77)"/>
<path d="M0 0 C1.32 0 2.64 0 4 0 C4 1.98 4 3.96 4 6 C3.34 6 2.68 6 2 6 C2 6.66 2 7.32 2 8 C-1.96 8 -5.92 8 -10 8 C-10 6.02 -10 4.04 -10 2 C-8.68 2 -7.36 2 -6 2 C-6 2.66 -6 3.32 -6 4 C-4.68 4 -3.36 4 -2 4 C-2 3.34 -2 2.68 -2 2 C-1.34 2 -0.68 2 0 2 C0 1.34 0 0.68 0 0 Z " fill="#181818" transform="translate(214,73)"/>
<path d="M0 0 C1.32 0 2.64 0 4 0 C4 0.66 4 1.32 4 2 C4.66 2 5.32 2 6 2 C6 2.66 6 3.32 6 4 C7.32 4 8.64 4 10 4 C10 3.34 10 2.68 10 2 C11.32 2 12.64 2 14 2 C14 3.98 14 5.96 14 8 C10.04 8 6.08 8 2 8 C2 7.34 2 6.68 2 6 C1.34 6 0.68 6 0 6 C0 4.02 0 2.04 0 0 Z " fill="#181818" transform="translate(258,73)"/>
<path d="M0 0 C3.96 0 7.92 0 12 0 C12 1.98 12 3.96 12 6 C8.04 6 4.08 6 0 6 C0 4.02 0 2.04 0 0 Z " fill="#EDEDED" transform="translate(232,103)"/>
<path d="M0 0 C1.98 0 3.96 0 6 0 C6 0.66 6 1.32 6 2 C4.68 2 3.36 2 2 2 C2 2.66 2 3.32 2 4 C-5.26 4 -12.52 4 -20 4 C-20 3.34 -20 2.68 -20 2 C-13.4 2 -6.8 2 0 2 C0 1.34 0 0.68 0 0 Z " fill="#4D4D4D" transform="translate(246,99)"/>
<path d="M0 0 C1.98 0 3.96 0 6 0 C6 0.66 6 1.32 6 2 C6.66 2 7.32 2 8 2 C8 2.66 8 3.32 8 4 C8.66 4 9.32 4 10 4 C10 4.66 10 5.32 10 6 C9.34 6 8.68 6 8 6 C8 7.32 8 8.64 8 10 C7.34 10 6.68 10 6 10 C6 10.66 6 11.32 6 12 C5.34 12 4.68 12 4 12 C4 11.34 4 10.68 4 10 C3.34 10 2.68 10 2 10 C2 9.34 2 8.68 2 8 C2.66 8 3.32 8 4 8 C4 6.02 4 4.04 4 2 C2.68 2 1.36 2 0 2 C0 1.34 0 0.68 0 0 Z " fill="#C7C7C7" transform="translate(214,71)"/>
<path d="M0 0 C0.66 0 1.32 0 2 0 C2 0.66 2 1.32 2 2 C2.66 2 3.32 2 4 2 C4 2.66 4 3.32 4 4 C4.66 4 5.32 4 6 4 C6 5.32 6 6.64 6 8 C5.34 8 4.68 8 4 8 C4 8.66 4 9.32 4 10 C2.68 10 1.36 10 0 10 C0 9.34 0 8.68 0 8 C-0.66 8 -1.32 8 -2 8 C-2 6.02 -2 4.04 -2 2 C-1.34 2 -0.68 2 0 2 C0 1.34 0 0.68 0 0 Z " fill="#1F1F1F" transform="translate(290,47)"/>
<path d="M0 0 C1.98 0 3.96 0 6 0 C6 0.66 6 1.32 6 2 C4.68 2 3.36 2 2 2 C2 3.98 2 5.96 2 8 C2.66 8 3.32 8 4 8 C4 8.66 4 9.32 4 10 C3.34 10 2.68 10 2 10 C2 10.66 2 11.32 2 12 C1.34 12 0.68 12 0 12 C0 10.68 0 9.36 0 8 C-0.66 8 -1.32 8 -2 8 C-2 7.34 -2 6.68 -2 6 C-2.66 6 -3.32 6 -4 6 C-4 5.34 -4 4.68 -4 4 C-3.34 4 -2.68 4 -2 4 C-2 3.34 -2 2.68 -2 2 C-1.34 2 -0.68 2 0 2 C0 1.34 0 0.68 0 0 Z " fill="#D1D1D1" transform="translate(256,71)"/>
<path d="M0 0 C3.3 0 6.6 0 10 0 C10 0.66 10 1.32 10 2 C11.32 2 12.64 2 14 2 C14 2.66 14 3.32 14 4 C12.68 4 11.36 4 10 4 C10 4.66 10 5.32 10 6 C8.02 6 6.04 6 4 6 C4 5.34 4 4.68 4 4 C5.32 4 6.64 4 8 4 C8 3.34 8 2.68 8 2 C5.36 2 2.72 2 0 2 C0 1.34 0 0.68 0 0 Z " fill="#4D4D4D" transform="translate(232,71)"/>
<path d="M0 0 C3.3 0 6.6 0 10 0 C10 0.66 10 1.32 10 2 C8.68 2 7.36 2 6 2 C6 2.66 6 3.32 6 4 C4.02 4 2.04 4 0 4 C0 4.66 0 5.32 0 6 C-1.32 6 -2.64 6 -4 6 C-4 5.34 -4 4.68 -4 4 C-3.34 4 -2.68 4 -2 4 C-2 3.34 -2 2.68 -2 2 C-1.34 2 -0.68 2 0 2 C0 1.34 0 0.68 0 0 Z " fill="#0B0B0B" transform="translate(230,73)"/>
<path d="M0 0 C0.66 0 1.32 0 2 0 C2 0.66 2 1.32 2 2 C2.66 2 3.32 2 4 2 C4 7.28 4 12.56 4 18 C3.34 18 2.68 18 2 18 C2 13.38 2 8.76 2 4 C1.34 4 0.68 4 0 4 C0 2.68 0 1.36 0 0 Z " fill="#B6B6B6" transform="translate(284,71)"/>
<path d="M0 0 C1.32 0 2.64 0 4 0 C4 0.66 4 1.32 4 2 C3.34 2 2.68 2 2 2 C2 2.66 2 3.32 2 4 C1.34 4 0.68 4 0 4 C0 4.66 0 5.32 0 6 C0.66 6 1.32 6 2 6 C2 6.66 2 7.32 2 8 C1.34 8 0.68 8 0 8 C0 8.66 0 9.32 0 10 C-0.66 10 -1.32 10 -2 10 C-2 9.34 -2 8.68 -2 8 C-2.66 8 -3.32 8 -4 8 C-4 6.68 -4 5.36 -4 4 C-3.34 4 -2.68 4 -2 4 C-2 3.34 -2 2.68 -2 2 C-1.34 2 -0.68 2 0 2 C0 1.34 0 0.68 0 0 Z " fill="#424242" transform="translate(226,73)"/>
<path d="M0 0 C1.32 0 2.64 0 4 0 C4 0.66 4 1.32 4 2 C4.66 2 5.32 2 6 2 C6 2.66 6 3.32 6 4 C5.34 4 4.68 4 4 4 C4 4.66 4 5.32 4 6 C2.68 6 1.36 6 0 6 C0 6.66 0 7.32 0 8 C-0.66 8 -1.32 8 -2 8 C-2 6.68 -2 5.36 -2 4 C-1.34 4 -0.68 4 0 4 C0 2.68 0 1.36 0 0 Z " fill="#E4E4E4" transform="translate(244,79)"/>
<path d="M0 0 C3.96 0 7.92 0 12 0 C12 1.98 12 3.96 12 6 C11.34 6 10.68 6 10 6 C10 4.68 10 3.36 10 2 C6.7 2 3.4 2 0 2 C0 1.34 0 0.68 0 0 Z " fill="#474747" transform="translate(260,219)"/>
<path d="M0 0 C0.66 0 1.32 0 2 0 C2 1.98 2 3.96 2 6 C-0.64 6 -3.28 6 -6 6 C-6 5.34 -6 4.68 -6 4 C-5.34 4 -4.68 4 -4 4 C-4 3.34 -4 2.68 -4 2 C-2.68 2 -1.36 2 0 2 C0 1.34 0 0.68 0 0 Z " fill="#131313" transform="translate(252,93)"/>
<path d="M0 0 C1.98 0 3.96 0 6 0 C6 3.3 6 6.6 6 10 C5.34 10 4.68 10 4 10 C4 7.36 4 4.72 4 2 C2.68 2 1.36 2 0 2 C0 1.34 0 0.68 0 0 Z " fill="#484848" transform="translate(226,247)"/>
<path d="M0 0 C1.98 0 3.96 0 6 0 C6 0.66 6 1.32 6 2 C4.68 2 3.36 2 2 2 C2 2.66 2 3.32 2 4 C0.02 4 -1.96 4 -4 4 C-4 3.34 -4 2.68 -4 2 C-2.68 2 -1.36 2 0 2 C0 1.34 0 0.68 0 0 Z " fill="#5E5E5E" transform="translate(360,239)"/>
<path d="M0 0 C2.64 0 5.28 0 8 0 C8 1.32 8 2.64 8 4 C6.68 4 5.36 4 4 4 C4 3.34 4 2.68 4 2 C2.68 2 1.36 2 0 2 C0 1.34 0 0.68 0 0 Z " fill="#B5B5B5" transform="translate(228,83)"/>
<path d="M0 0 C1.32 0 2.64 0 4 0 C4 1.98 4 3.96 4 6 C2.68 6 1.36 6 0 6 C0 4.02 0 2.04 0 0 Z " fill="#242424" transform="translate(268,75)"/>
<path d="M0 0 C1.32 0 2.64 0 4 0 C4 1.98 4 3.96 4 6 C2.68 6 1.36 6 0 6 C0 4.02 0 2.04 0 0 Z " fill="#242424" transform="translate(204,75)"/>
<path d="M0 0 C1.32 0 2.64 0 4 0 C4 0.66 4 1.32 4 2 C3.34 2 2.68 2 2 2 C2 2.66 2 3.32 2 4 C0.02 4 -1.96 4 -4 4 C-4 3.34 -4 2.68 -4 2 C-2.68 2 -1.36 2 0 2 C0 1.34 0 0.68 0 0 Z " fill="#313131" transform="translate(228,97)"/>
<path d="M0 0 C1.98 0 3.96 0 6 0 C6 0.66 6 1.32 6 2 C4.68 2 3.36 2 2 2 C2 2.66 2 3.32 2 4 C0.68 4 -0.64 4 -2 4 C-2 3.34 -2 2.68 -2 2 C-1.34 2 -0.68 2 0 2 C0 1.34 0 0.68 0 0 Z " fill="#040404" transform="translate(228,75)"/>
<path d="M0 0 C1.98 0 3.96 0 6 0 C6 0.66 6 1.32 6 2 C4.68 2 3.36 2 2 2 C2 3.32 2 4.64 2 6 C1.34 6 0.68 6 0 6 C0 4.02 0 2.04 0 0 Z " fill="#828282" transform="translate(256,71)"/>
<path d="M0 0 C1.98 0 3.96 0 6 0 C6 1.98 6 3.96 6 6 C5.34 6 4.68 6 4 6 C4 4.68 4 3.36 4 2 C2.68 2 1.36 2 0 2 C0 1.34 0 0.68 0 0 Z " fill="#828282" transform="translate(214,71)"/>
<path d="M0 0 C0.66 0 1.32 0 2 0 C2 1.32 2 2.64 2 4 C1.34 4 0.68 4 0 4 C0 4.66 0 5.32 0 6 C-1.32 6 -2.64 6 -4 6 C-4 5.34 -4 4.68 -4 4 C-3.34 4 -2.68 4 -2 4 C-2 3.34 -2 2.68 -2 2 C-1.34 2 -0.68 2 0 2 C0 1.34 0 0.68 0 0 Z " fill="#393939" transform="translate(198,61)"/>
<path d="M0 0 C0.66 0 1.32 0 2 0 C2 1.32 2 2.64 2 4 C-0.64 4 -3.28 4 -6 4 C-6 3.34 -6 2.68 -6 2 C-4.02 2 -2.04 2 0 2 C0 1.34 0 0.68 0 0 Z " fill="#C3C3C3" transform="translate(250,41)"/>
<path d="M0 0 C0.66 0 1.32 0 2 0 C2 0.66 2 1.32 2 2 C2.66 2 3.32 2 4 2 C4 3.98 4 5.96 4 8 C3.34 8 2.68 8 2 8 C2 6.68 2 5.36 2 4 C1.34 4 0.68 4 0 4 C0 2.68 0 1.36 0 0 Z " fill="#AFAFAF" transform="translate(212,35)"/>
</svg>
