<svg width="33" height="33" viewBox="0 0 33 33" fill="none" xmlns="http://www.w3.org/2000/svg">
<path d="M22.8164 23.4609H10.1836C9.82759 23.4609 9.53906 23.1724 9.53906 22.8164V10.1836C9.53906 9.82759 9.82759 9.53906 10.1836 9.53906H22.8164C23.1724 9.53906 23.4609 9.82759 23.4609 10.1836V22.8164C23.4609 23.1724 23.1724 23.4609 22.8164 23.4609ZM10.8281 22.1719H22.1719V10.8281H10.8281V22.1719Z" fill="#60C0FF"/>
<path d="M7.60547 23.4609H0.644531C0.288528 23.4609 0 23.1724 0 22.8164V0.644531C0 0.288528 0.288528 0 0.644531 0H22.8164C23.1724 0 23.4609 0.288528 23.4609 0.644531V7.60547C23.4609 7.96147 23.1724 8.25 22.8164 8.25H8.25V22.8164C8.25 23.1724 7.96147 23.4609 7.60547 23.4609ZM1.28906 22.1719H6.96094V7.60547C6.96094 7.24947 7.24947 6.96094 7.60547 6.96094H22.1719V1.28906H1.28906V22.1719Z" fill="black"/>
<path d="M32.3555 33H25.3945C25.0385 33 24.75 32.7115 24.75 32.3555C24.75 31.9995 25.0385 31.7109 25.3945 31.7109H31.7109V10.8281H26.0391V25.3945C26.0391 25.7505 25.7505 26.0391 25.3945 26.0391H10.8281V31.7109H20.2383C20.5943 31.7109 20.8828 31.9995 20.8828 32.3555C20.8828 32.7115 20.5943 33 20.2383 33H10.1836C9.82759 33 9.53906 32.7115 9.53906 32.3555V25.3945C9.53906 25.0385 9.82759 24.75 10.1836 24.75H24.75V10.1836C24.75 9.82759 25.0385 9.53906 25.3945 9.53906H32.3555C32.7115 9.53906 33 9.82759 33 10.1836V32.3555C33 32.7115 32.7115 33 32.3555 33Z" fill="black"/>
<path d="M22.8164 33C22.647 33 22.4805 32.931 22.3607 32.8112C22.2409 32.6913 22.1719 32.5249 22.1719 32.3555C22.1719 32.186 22.2409 32.0196 22.3607 31.8998C22.4805 31.7799 22.647 31.7109 22.8164 31.7109C22.9858 31.7109 23.1523 31.7799 23.2721 31.8998C23.392 32.0196 23.4609 32.186 23.4609 32.3555C23.4609 32.5249 23.392 32.6913 23.2721 32.8112C23.1523 32.931 22.9858 33 22.8164 33Z" fill="#60C0FF"/>
</svg>
